<?xml version="1.0" encoding="utf-8"?>
<!-- Generator: Adobe Illustrator 23.0.3, SVG Export Plug-In . SVG Version: 6.00 Build 0)  -->
<svg version="1.1" id="图层_1" xmlns="http://www.w3.org/2000/svg" xmlns:xlink="http://www.w3.org/1999/xlink" x="0px" y="0px"
	 viewBox="0 0 400 400" style="enable-background:new 0 0 400 400;" xml:space="preserve">
<style type="text/css">
	.st0{fill:none;stroke:#231815;stroke-width:2;stroke-linecap:round;stroke-linejoin:round;stroke-miterlimit:10;}
	.st1{fill:#231815;stroke:#231815;stroke-width:2;stroke-linecap:round;stroke-linejoin:round;stroke-miterlimit:10;}
	.st2{fill:#FFB600;stroke:#231815;stroke-width:2;stroke-linecap:round;stroke-linejoin:round;stroke-miterlimit:10;}
	.st3{fill:#231815;}
	.st4{fill:none;stroke:#231815;stroke-linecap:round;stroke-linejoin:round;stroke-miterlimit:10;}
</style>
<path class="st0" d="M234.8,164.9v-3.2c0-6.8,5.5-12.3,12.3-12.3h0c6.8,0,12.3,5.5,12.3,12.3v3.2"/>
<path class="st1" d="M257.2,171.7c-1.6-0.1-2.3-2.2-4.3-3c-2-0.8-3.2,1.2-4.3,2.5c-1.2,1.4-3.3,0.4-4.4-0.8
	c-1.1-1.2-2.9-2.8-5.5,1.4c-2.7,4.4-5.1-1.4-5.1-1.4v0.3c0,8.6,6.1,15.7,13.5,15.7h0c7.4,0,13.5-7.1,13.5-15.7v-2.1
	C260.6,168.6,258.8,171.7,257.2,171.7z"/>
<path class="st0" d="M233.6,164.9v5.5c0,0,2.4,5.8,5.1,1.4c2.5-4.2,4.3-2.6,5.5-1.4c1.1,1.2,3.3,2.2,4.4,0.8
	c1.2-1.4,2.4-3.3,4.3-2.5c2,0.8,2.7,2.9,4.3,3c1.6,0.1,3.4-3,3.4-3v-3.7H233.6z"/>
<g>
	<path class="st2" d="M254.3,145.2c0,0-1.8,2.5-3,5.7"/>
	<path class="st2" d="M249.2,143.8c0,0-2.4,2.9-3,6.4"/>
	<g>
		<path class="st0" d="M319.2,74.5c-3.4-6.2-10-10.5-17.6-10.5h-12c-11.1,0-20,9-20,20v9"/>
		<path class="st0" d="M303.2,111.9c8.9,8.6,13.4,18.4,11.3,30.1c-3.1,17-20.9,29-33.8,18.4c-12.8-10.6-18.2-13.7-25.4-15.3
			c-14.5-3.4-31.2-17-20.9-37.7c8.4-16.7,26.8-18.3,43.1-12.1"/>
		<path class="st3" d="M313.8,128.2c0,0-10.2,25.5-35,30.6l2,1.6c12.8,10.6,30.7-1.4,33.8-18.4c0.9-4.8,0.6-9.2-0.6-13.4
			L313.8,128.2z"/>
		<path class="st0" d="M313.8,128.2c0,0-10.2,25.5-35,30.6"/>
		<path class="st0" d="M235.7,92.6c0,0-6.6-8.5-17.8-5.8"/>
		<path class="st0" d="M244.6,88c0,0-2.9-14.3-14.1-17.1"/>
		<path class="st0" d="M247.8,142.4c24.3-16.1,25.3-48.6,25.3-48.6"/>
		<path class="st0" d="M299.5,112c-1.8,7.7-8.7,28.5-32.8,37.8"/>
		<circle class="st0" cx="250.8" cy="111.3" r="3.9"/>
		<path class="st0" d="M309.6,72h-12c-11.1,0-20,9-20,20v20l0,0h32.1c7.4,0,13.8-4,17.3-10c1.7-3,2.7-6.4,2.7-10l0,0
			C329.6,81,320.6,72,309.6,72z"/>
		<path class="st3" d="M299.5,112h-21.9V95.2l-4.5-1.4c0,0-1.1,32.4-25.3,48.5c0,0,2.8,1.5,6,2.3s5.3,1.3,8.5,2.8
			c3.2,1.5,4.4,2.4,4.4,2.4C290.8,140.5,297.7,119.8,299.5,112"/>
	</g>
</g>
<g>
	<path class="st0" d="M176.1,137.5v-2.9c0-6-4.9-10.9-10.9-10.9h0c-6,0-10.9,4.9-10.9,10.9v2.9"/>
	<path class="st1" d="M172.7,143.6c-2.2-3.7-3.9-2.3-4.9-1.2c-1,1.1-2.9,1.9-3.9,0.7c-1-1.2-2.1-2.9-3.9-2.2
		c-1.8,0.7-2.4,2.6-3.8,2.7c-1.4,0.1-3-2.7-3-2.7v1.9c0,7.7,5.4,14,12,14c6.6,0,12-6.3,12-14v-0.3
		C177.2,142.3,175,147.5,172.7,143.6z"/>
	<path class="st0" d="M153.2,137.5v3.3c0,0,1.6,2.7,3,2.7c1.4-0.1,2-1.9,3.8-2.7c1.8-0.7,2.8,1,3.9,2.2c1,1.2,2.9,0.4,3.9-0.7
		c1-1.1,2.6-2.5,4.9,1.2c2.4,3.9,4.5-1.3,4.5-1.3v-4.9H153.2z"/>
</g>
<g>
	<path class="st2" d="M158.8,120c0,0,1.6,2.2,2.7,5"/>
	<path class="st2" d="M163.3,118.7c0,0,2.1,2.6,2.7,5.7"/>
	<g>
		<path class="st0" d="M101.1,57.1c3-5.6,8.9-9.3,15.7-9.3h10.7c9.8,0,17.8,8,17.8,17.8v8"/>
		<path class="st0" d="M115.3,90.4c-7.9,7.7-11.9,16.3-10,26.7c2.7,15.1,18.6,25.8,30,16.4s16.2-12.1,22.6-13.6
			c12.9-3,27.8-15.1,18.6-33.5c-7.4-14.9-23.8-16.2-38.4-10.8"/>
		<path class="st3" d="M105.9,104.8c0,0,9.1,22.7,31.1,27.2l-1.7,1.4c-11.4,9.4-27.3-1.2-30-16.4c-0.8-4.2-0.6-8.2,0.5-11.9
			L105.9,104.8z"/>
		<path class="st0" d="M105.9,104.8c0,0,9.1,22.7,31.1,27.2"/>
		<path class="st0" d="M175.4,73.2c0,0,5.8-7.5,15.8-5.1"/>
		<path class="st0" d="M167.4,69.1c0,0,2.6-12.7,12.6-15.2"/>
		<path class="st0" d="M164.6,117.4c-21.6-14.3-22.5-43.2-22.5-43.2"/>
		<path class="st0" d="M118.6,90.5c1.6,6.9,7.7,25.3,29.1,33.6"/>
		<circle class="st0" cx="161.9" cy="89.8" r="3.5"/>
		<path class="st0" d="M109.6,54.9h10.7c9.8,0,17.8,8,17.8,17.8v17.8l0,0h-28.5c-6.6,0-12.3-3.6-15.4-8.9c-1.5-2.6-2.4-5.7-2.4-8.9
			l0,0C91.8,62.9,99.8,54.9,109.6,54.9z"/>
		<path class="st3" d="M118.6,90.5h19.5V75.6l4-1.2c0,0,1,28.8,22.5,43.1c0,0-2.5,1.3-5.3,2c-2.8,0.7-4.7,1.1-7.6,2.5
			c-2.9,1.4-4,2.2-4,2.2C126.4,115.8,120.2,97.4,118.6,90.5"/>
	</g>
</g>
<g>
	<g>
		<path class="st4" d="M196.5,208.4c-2-8.2-5.3-12.7-5.3-12.7s-3.1,4.2-5.1,11.9"/>
		<path class="st4" d="M185.9,313c2,8.2,5.3,12.7,5.3,12.7s3.1-4.2,5.1-11.9"/>
	</g>
	<g>
		<path class="st4" d="M243.5,266c8.2-2,12.7-5.3,12.7-5.3s-4.2-3.1-11.9-5.1"/>
		<path class="st4" d="M138.9,255.4c-8.2,2-12.7,5.3-12.7,5.3s4.2,3.1,11.9,5.1"/>
	</g>
	<g>
		<path class="st4" d="M224.4,301.5c7.2,4.4,12.7,5.2,12.7,5.2s-0.8-5.1-4.8-12"/>
		<path class="st4" d="M158,220c-7.3-4.4-12.7-5.2-12.7-5.2s0.8,5.1,4.8,12"/>
	</g>
	<g>
		<path class="st4" d="M150.5,293.9c-4.4,7.2-5.2,12.7-5.2,12.7s5.1-0.8,12-4.8"/>
		<path class="st4" d="M231.9,227.5c4.4-7.2,5.2-12.7,5.2-12.7s-5.1,0.8-12,4.8"/>
	</g>
	<g>
		<path class="st4" d="M216.1,214.4c1.2-8.4-0.1-13.8-0.1-13.8s-4.3,2.6-9.1,8.8"/>
		<path class="st4" d="M166.3,307c-1.2,8.4,0.1,13.8,0.1,13.8s4.3-2.6,9.1-8.8"/>
	</g>
	<g>
		<path class="st4" d="M237.5,285.6c8.4,1.2,13.8-0.1,13.8-0.1s-2.6-4.3-8.8-9.1"/>
		<path class="st4" d="M144.9,235.8c-8.4-1.2-13.8,0.1-13.8,0.1s2.6,4.3,8.8,9.1"/>
	</g>
	<g>
		<path class="st4" d="M206.4,311.1c5,6.7,9.7,9.6,9.7,9.6s1.2-4.9,0.2-12.7"/>
		<path class="st4" d="M176,210.3c-5-6.7-9.7-9.6-9.7-9.6s-1.2,4.9-0.2,12.7"/>
	</g>
	<g>
		<path class="st4" d="M140.9,275.9c-6.8,5-9.7,9.8-9.7,9.8s4.9,1.2,12.7,0.2"/>
		<path class="st4" d="M241.5,245.5c6.8-5,9.7-9.8,9.7-9.8s-4.9-1.2-12.7-0.2"/>
	</g>
	<circle class="st4" cx="191.2" cy="260.7" r="27.4"/>
	<g>
		<g>
			<path class="st4" d="M207,214c0.3-10.5-2.7-17-2.7-17s-5.3,4.7-9.2,14.5c-3.9,9.8-3.5,21.7-3.5,21.7s4.8-0.1,9.9,2
				C201.6,235.4,206.7,224.5,207,214z"/>
			<path class="st4" d="M175.4,307.4c-0.3,10.5,2.7,17,2.7,17s5.3-4.7,9.2-14.5c3.9-9.8,3.5-21.7,3.5-21.7s-4.8,0.1-9.9-2
				C180.8,286,175.7,296.9,175.4,307.4z"/>
		</g>
		<g>
			<path class="st4" d="M237.9,276.5c10.5,0.3,17-2.7,17-2.7s-4.7-5.3-14.5-9.2c-9.8-3.9-21.7-3.5-21.7-3.5s0.1,4.8-2,9.9
				C216.5,271.1,227.4,276.2,237.9,276.5z"/>
			<path class="st4" d="M144.5,244.9c-10.5-0.3-17,2.7-17,2.7s4.7,5.3,14.5,9.2c9.8,3.9,21.7,3.5,21.7,3.5s-0.1-4.8,2-9.9
				C165.9,250.3,155,245.2,144.5,244.9z"/>
		</g>
		<g>
			<path class="st4" d="M213.1,304.9c7.3,7.6,13.9,10.1,13.9,10.1s0.4-7.1-3.8-16.7c-4.2-9.7-12.9-17.8-12.9-17.8s-3.3,3.5-8.5,5.6
				C201.8,286,205.8,297.2,213.1,304.9z"/>
			<path class="st4" d="M169.3,216.5c-7.3-7.6-13.9-10.1-13.9-10.1s-0.4,7.1,3.8,16.7c4.2,9.7,12.9,17.8,12.9,17.8s3.3-3.5,8.5-5.6
				C180.6,235.4,176.6,224.2,169.3,216.5z"/>
		</g>
		<g>
			<path class="st4" d="M147,282.6c-7.6,7.3-10.1,13.9-10.1,13.9s7.1,0.4,16.7-3.8c9.7-4.2,17.8-12.9,17.8-12.9s-3.5-3.3-5.6-8.5
				C165.9,271.3,154.7,275.3,147,282.6z"/>
			<path class="st4" d="M235.4,238.8c7.6-7.3,10.1-13.9,10.1-13.9s-7.1-0.4-16.7,3.8c-9.7,4.2-17.8,12.9-17.8,12.9s3.5,3.3,5.6,8.5
				C216.5,250.1,227.7,246.1,235.4,238.8z"/>
		</g>
		<g>
			<path class="st4" d="M237.9,276.5c10.5,0.3,17-2.7,17-2.7s-4.7-5.3-14.5-9.2c-9.8-3.9-21.7-3.5-21.7-3.5s0.1,4.8-2,9.9
				C216.5,271.1,227.4,276.2,237.9,276.5z"/>
			<path class="st4" d="M144.5,244.9c-10.5-0.3-17,2.7-17,2.7s4.7,5.3,14.5,9.2c9.8,3.9,21.7,3.5,21.7,3.5s-0.1-4.8,2-9.9
				C165.9,250.3,155,245.2,144.5,244.9z"/>
		</g>
		<g>
			<path class="st4" d="M213.1,304.9c7.3,7.6,13.9,10.1,13.9,10.1s0.4-7.1-3.8-16.7c-4.2-9.7-12.9-17.8-12.9-17.8s-3.3,3.5-8.5,5.6
				C201.8,286,205.8,297.2,213.1,304.9z"/>
			<path class="st4" d="M169.3,216.5c-7.3-7.6-13.9-10.1-13.9-10.1s-0.4,7.1,3.8,16.7c4.2,9.7,12.9,17.8,12.9,17.8s3.3-3.5,8.5-5.6
				C180.6,235.4,176.6,224.2,169.3,216.5z"/>
		</g>
		<g>
			<path class="st4" d="M147,282.6c-1.2,1.1-2.2,2.2-3.2,3.3c-5.2,5.9-6.9,10.6-6.9,10.6s7.1,0.4,16.7-3.8
				c9.7-4.2,17.8-12.9,17.8-12.9s-3.5-3.3-5.6-8.5C165.9,271.3,154.7,275.3,147,282.6z"/>
			<path class="st4" d="M235.4,238.8c7.6-7.3,10.1-13.9,10.1-13.9s-7.1-0.4-16.7,3.8c-9.7,4.2-17.8,12.9-17.8,12.9s3.5,3.3,5.6,8.5
				C216.5,250.1,227.7,246.1,235.4,238.8z"/>
		</g>
		<g>
			<path class="st4" d="M223.6,223.5c4.3-9.6,4-16.7,4-16.7s-6.7,2.4-14,9.9c-7.3,7.6-11.5,18.8-11.5,18.8s4.5,1.7,8.4,5.7
				C210.5,241.2,219.3,233.2,223.6,223.5z"/>
			<path class="st4" d="M158.8,297.9c-4.3,9.6-4,16.7-4,16.7s6.7-2.4,14-9.9c7.3-7.6,11.5-18.8,11.5-18.8s-4.5-1.7-8.4-5.7
				C171.9,280.2,163.1,288.2,158.8,297.9z"/>
		</g>
		<g>
			<path class="st4" d="M228.4,293.1c9.6,4.3,16.7,4,16.7,4s-2.4-6.7-9.9-14c-7.6-7.3-18.8-11.5-18.8-11.5s-1.7,4.5-5.7,8.4
				C210.7,280,218.7,288.8,228.4,293.1z"/>
			<path class="st4" d="M154,228.3c-9.6-4.3-16.7-4-16.7-4s2.4,6.7,9.9,14c7.6,7.3,18.8,11.5,18.8,11.5s1.7-4.5,5.7-8.4
				C171.7,241.4,163.7,232.6,154,228.3z"/>
		</g>
		<g>
			<path class="st4" d="M194.6,309.9c3.8,9.8,9,14.6,9,14.6s3-6.4,2.9-16.9c-0.2-10.5-5.1-21.4-5.1-21.4s-4.4,2-10,1.9
				C191.3,288.1,190.8,300,194.6,309.9z"/>
			<path class="st4" d="M187.8,211.5c-3.8-9.8-9-14.6-9-14.6s-3,6.4-2.9,16.9c0.2,10.5,5.1,21.4,5.1,21.4s4.4-2,10-1.9
				C191.1,233.3,191.6,221.4,187.8,211.5z"/>
		</g>
		<g>
			<path class="st4" d="M142,264.1c-9.8,3.8-14.6,9-14.6,9s5,2.4,13.4,2.8c1.1,0.1,2.3,0.1,3.6,0.1c10.5-0.2,21.4-5.1,21.4-5.1
				s-2-4.4-1.9-10C163.8,260.8,151.9,260.3,142,264.1z"/>
			<path class="st4" d="M240.4,257.3c9.8-3.8,14.6-9,14.6-9s-6.4-3-16.9-2.9c-10.5,0.2-21.4,5.1-21.4,5.1s2,4.4,1.9,10
				C218.6,260.6,230.5,261.1,240.4,257.3z"/>
		</g>
		<circle class="st4" cx="191.2" cy="260.7" r="27.4"/>
	</g>
</g>
<g>
	<g>
		<path class="st4" d="M93.8,275.6c-1.4-5.7-3.7-8.7-3.7-8.7s-2.1,2.9-3.5,8.2"/>
		<path class="st4" d="M86.4,347.7c1.4,5.7,3.7,8.7,3.7,8.7s2.1-2.9,3.5-8.2"/>
	</g>
	<g>
		<path class="st4" d="M126.1,315.3c5.7-1.4,8.7-3.7,8.7-3.7s-2.9-2.1-8.2-3.5"/>
		<path class="st4" d="M54.1,308c-5.7,1.4-8.7,3.7-8.7,3.7s2.9,2.1,8.2,3.5"/>
	</g>
	<g>
		<path class="st4" d="M113,339.7c5,3,8.7,3.6,8.7,3.6s-0.5-3.5-3.3-8.3"/>
		<path class="st4" d="M67.2,283.6c-5-3-8.8-3.6-8.8-3.6s0.5,3.5,3.3,8.3"/>
	</g>
	<g>
		<path class="st4" d="M62.1,334.5c-3,5-3.6,8.8-3.6,8.8s3.5-0.5,8.3-3.3"/>
		<path class="st4" d="M118.2,288.8c3-5,3.6-8.8,3.6-8.8s-3.5,0.5-8.3,3.3"/>
	</g>
	<g>
		<path class="st4" d="M107.2,279.8c0.9-5.8-0.1-9.5-0.1-9.5s-3,1.8-6.3,6.1"/>
		<path class="st4" d="M73,343.5c-0.9,5.8,0.1,9.5,0.1,9.5s3-1.8,6.3-6.1"/>
	</g>
	<g>
		<path class="st4" d="M122,328.8c5.8,0.9,9.5-0.1,9.5-0.1s-1.8-3-6.1-6.3"/>
		<path class="st4" d="M58.2,294.5c-5.8-0.9-9.5,0.1-9.5,0.1s1.8,3,6.1,6.3"/>
	</g>
	<g>
		<path class="st4" d="M100.6,346.4c3.4,4.6,6.7,6.6,6.7,6.6s0.8-3.4,0.1-8.7"/>
		<path class="st4" d="M79.6,276.9c-3.4-4.6-6.7-6.6-6.7-6.6s-0.8,3.4-0.1,8.7"/>
	</g>
	<g>
		<path class="st4" d="M55.5,322.1c-4.7,3.5-6.7,6.7-6.7,6.7s3.4,0.8,8.7,0.1"/>
		<path class="st4" d="M124.8,301.2c4.7-3.5,6.7-6.7,6.7-6.7s-3.4-0.8-8.7-0.1"/>
	</g>
	<circle class="st4" cx="90.1" cy="311.6" r="18.8"/>
	<g>
		<g>
			<path class="st4" d="M101,279.5c0.2-7.2-1.8-11.7-1.8-11.7s-3.6,3.3-6.3,10c-2.7,6.7-2.4,15-2.4,15s3.3-0.1,6.8,1.4
				C97.3,294.2,100.8,286.8,101,279.5z"/>
			<path class="st4" d="M79.3,343.8c-0.2,7.2,1.8,11.7,1.8,11.7s3.6-3.3,6.3-10c2.7-6.7,2.4-15,2.4-15s-3.3,0.1-6.8-1.4
				C83,329.1,79.4,336.5,79.3,343.8z"/>
		</g>
		<g>
			<path class="st4" d="M122.2,322.5c7.2,0.2,11.7-1.8,11.7-1.8s-3.3-3.6-10-6.3c-6.7-2.7-15-2.4-15-2.4s0.1,3.3-1.4,6.8
				C107.5,318.8,115,322.3,122.2,322.5z"/>
			<path class="st4" d="M58,300.8c-7.2-0.2-11.7,1.8-11.7,1.8s3.3,3.6,10,6.3c6.7,2.7,15,2.4,15,2.4s-0.1-3.3,1.4-6.8
				C72.7,304.5,65.2,301,58,300.8z"/>
		</g>
		<g>
			<path class="st4" d="M105.2,342c5,5.3,9.6,7,9.6,7s0.2-4.9-2.6-11.5c-2.9-6.7-8.9-12.3-8.9-12.3s-2.3,2.4-5.8,3.8
				C97.4,329,100.2,336.8,105.2,342z"/>
			<path class="st4" d="M75,281.3c-5-5.3-9.6-7-9.6-7s-0.2,4.9,2.6,11.5c2.9,6.7,8.9,12.3,8.9,12.3s2.3-2.4,5.8-3.8
				C82.8,294.3,80,286.5,75,281.3z"/>
		</g>
		<g>
			<path class="st4" d="M59.7,326.7c-5.3,5-7,9.6-7,9.6s4.9,0.2,11.5-2.6c6.7-2.9,12.3-8.9,12.3-8.9s-2.4-2.3-3.8-5.8
				C72.7,318.9,65,321.7,59.7,326.7z"/>
			<path class="st4" d="M120.5,296.6c5.3-5,7-9.6,7-9.6s-4.9-0.2-11.5,2.6c-6.7,2.9-12.3,8.9-12.3,8.9s2.4,2.3,3.8,5.8
				C107.5,304.4,115.2,301.6,120.5,296.6z"/>
		</g>
		<g>
			<path class="st4" d="M122.2,322.5c7.2,0.2,11.7-1.8,11.7-1.8s-3.3-3.6-10-6.3c-6.7-2.7-15-2.4-15-2.4s0.1,3.3-1.4,6.8
				C107.5,318.8,115,322.3,122.2,322.5z"/>
			<path class="st4" d="M58,300.8c-7.2-0.2-11.7,1.8-11.7,1.8s3.3,3.6,10,6.3c6.7,2.7,15,2.4,15,2.4s-0.1-3.3,1.4-6.8
				C72.7,304.5,65.2,301,58,300.8z"/>
		</g>
		<g>
			<path class="st4" d="M105.2,342c5,5.3,9.6,7,9.6,7s0.2-4.9-2.6-11.5c-2.9-6.7-8.9-12.3-8.9-12.3s-2.3,2.4-5.8,3.8
				C97.4,329,100.2,336.8,105.2,342z"/>
			<path class="st4" d="M75,281.3c-5-5.3-9.6-7-9.6-7s-0.2,4.9,2.6,11.5c2.9,6.7,8.9,12.3,8.9,12.3s2.3-2.4,5.8-3.8
				C82.8,294.3,80,286.5,75,281.3z"/>
		</g>
		<g>
			<path class="st4" d="M59.7,326.7c-0.8,0.8-1.5,1.5-2.2,2.3c-3.6,4-4.8,7.3-4.8,7.3s4.9,0.2,11.5-2.6c6.7-2.9,12.3-8.9,12.3-8.9
				s-2.4-2.3-3.8-5.8C72.7,318.9,65,321.7,59.7,326.7z"/>
			<path class="st4" d="M120.5,296.6c5.3-5,7-9.6,7-9.6s-4.9-0.2-11.5,2.6c-6.7,2.9-12.3,8.9-12.3,8.9s2.4,2.3,3.8,5.8
				C107.5,304.4,115.2,301.6,120.5,296.6z"/>
		</g>
		<g>
			<path class="st4" d="M112.4,286.1c2.9-6.6,2.7-11.5,2.7-11.5s-4.6,1.6-9.6,6.8c-5,5.2-7.9,12.9-7.9,12.9s3.1,1.2,5.8,3.9
				C103.4,298.3,109.5,292.7,112.4,286.1z"/>
			<path class="st4" d="M67.8,337.2c-2.9,6.6-2.7,11.5-2.7,11.5s4.6-1.6,9.6-6.8c5-5.2,7.9-12.9,7.9-12.9s-3.1-1.2-5.8-3.9
				C76.8,325,70.8,330.6,67.8,337.2z"/>
		</g>
		<g>
			<path class="st4" d="M115.7,333.9c6.6,2.9,11.5,2.7,11.5,2.7s-1.6-4.6-6.8-9.6c-5.2-5-12.9-7.9-12.9-7.9s-1.2,3.1-3.9,5.8
				C103.5,324.9,109.1,331,115.7,333.9z"/>
			<path class="st4" d="M64.5,289.4c-6.6-2.9-11.5-2.7-11.5-2.7s1.6,4.6,6.8,9.6c5.2,5,12.9,7.9,12.9,7.9s1.2-3.1,3.9-5.8
				C76.7,298.4,71.2,292.3,64.5,289.4z"/>
		</g>
		<g>
			<path class="st4" d="M92.4,345.5c2.6,6.8,6.2,10.1,6.2,10.1s2.1-4.4,2-11.7c-0.1-7.3-3.5-14.7-3.5-14.7s-3,1.3-6.9,1.3
				C90.2,330.5,89.8,338.7,92.4,345.5z"/>
			<path class="st4" d="M87.8,277.8c-2.6-6.8-6.2-10.1-6.2-10.1s-2.1,4.4-2,11.7c0.1,7.3,3.5,14.7,3.5,14.7s3-1.3,6.9-1.3
				C90,292.8,90.4,284.6,87.8,277.8z"/>
		</g>
		<g>
			<path class="st4" d="M56.3,314c-6.8,2.6-10.1,6.2-10.1,6.2s3.4,1.6,9.2,1.9c0.8,0,1.6,0.1,2.4,0c7.3-0.1,14.7-3.5,14.7-3.5
				s-1.3-3-1.3-6.9C71.3,311.7,63,311.4,56.3,314z"/>
			<path class="st4" d="M123.9,309.3c6.8-2.6,10.1-6.2,10.1-6.2s-4.4-2.1-11.7-2c-7.3,0.1-14.7,3.5-14.7,3.5s1.3,3,1.3,6.9
				C109,311.6,117.2,311.9,123.9,309.3z"/>
		</g>
		<circle class="st4" cx="90.1" cy="311.6" r="18.8"/>
	</g>
</g>
<path class="st4" d="M296.9,278.1c7.8,2,13.1,0.9,13.1,0.9s-2.6-4.7-9.3-9.3c-6.6-4.6-13.8-6.1-15.6-6.4c-7.4-1-8.2,2.9-3.2,7.1
	C283.5,271.8,289.1,276.1,296.9,278.1z"/>
<path class="st4" d="M75.9,248.6c-1.9,5.2-1.6,8.9-1.6,8.9s3.4-1.5,7-5.7c3.6-4.2,5.1-9,5.5-10.2c1.2-5-1.4-5.8-4.6-2.7
	C81.2,239.9,77.8,243.4,75.9,248.6z"/>
<path class="st4" d="M104.8,229.5c-4.2-1.6-7.2-1.3-7.2-1.3s1.2,2.8,4.6,5.7c3.4,2.9,7.2,4.1,8.2,4.4c4,1,4.6-1.1,2.2-3.7
	C111.8,233.7,109,231,104.8,229.5z"/>
<path class="st4" d="M56.3,207.8c1.2-3.7,0.8-6.3,0.8-6.3s-2.4,1.1-4.8,4.2c-2.4,3.1-3.3,6.5-3.5,7.4c-0.7,3.5,1.2,4,3.3,1.8
	C52.9,214,55.1,211.5,56.3,207.8z"/>
<g>
	<g>
		<path class="st4" d="M299.5,353.4c-1.7-7.3-4.6-11.3-4.6-11.3s-2.7,3.7-4.6,10.5"/>
	</g>
	<g>
		<path class="st4" d="M340.7,404.9c7.3-1.7,11.3-4.6,11.3-4.6s-3.7-2.7-10.5-4.6"/>
		<path class="st4" d="M248,394.6c-7.3,1.7-11.3,4.6-11.3,4.6s3.7,2.7,10.5,4.6"/>
	</g>
	<g>
		<path class="st4" d="M265.2,363.3c-6.4-3.9-11.2-4.7-11.2-4.7s0.7,4.5,4.1,10.7"/>
	</g>
	<g>
		<path class="st4" d="M330.7,370.6c3.9-6.4,4.7-11.2,4.7-11.2s-4.5,0.7-10.7,4.1"/>
	</g>
	<g>
		<path class="st4" d="M316.7,358.8c1.2-7.4,0-12.2,0-12.2s-3.9,2.3-8.1,7.8"/>
	</g>
	<g>
		<path class="st4" d="M253.4,377.3c-7.4-1.2-12.2,0-12.2,0s2.3,3.9,7.8,8.1"/>
	</g>
	<g>
		<path class="st4" d="M281.2,354.9c-4.4-6-8.5-8.6-8.5-8.6s-1.1,4.4-0.3,11.3"/>
	</g>
	<g>
		<path class="st4" d="M339.1,386.7c6.1-4.4,8.7-8.6,8.7-8.6s-4.4-1.1-11.3-0.3"/>
	</g>
	<circle class="st4" cx="294.3" cy="399.7" r="24.3"/>
	<g>
		<g>
			<path class="st4" d="M308.7,358.4c0.3-9.3-2.2-15.1-2.2-15.1s-4.7,4.2-8.2,12.8c-3.5,8.6-3.3,19.3-3.3,19.3s4.3-0.1,8.8,1.9
				C303.7,377.3,308.3,367.8,308.7,358.4z"/>
		</g>
		<g>
			<path class="st4" d="M335.6,414.1c9.3,0.3,15.1-2.2,15.1-2.2s-4.2-4.7-12.8-8.2c-8.6-3.5-19.3-3.3-19.3-3.3s0.1,4.3-1.9,8.8
				C316.7,409.1,326.3,413.7,335.6,414.1z"/>
			<path class="st4" d="M253,385.4c-9.3-0.3-15.1,2.2-15.1,2.2s4.2,4.7,12.8,8.2c8.6,3.5,19.3,3.3,19.3,3.3s-0.1-4.3,1.9-8.8
				C271.9,390.3,262.4,385.7,253,385.4z"/>
		</g>
		<g>
			<path class="st4" d="M275.3,360.4c-6.4-6.8-12.2-9.1-12.2-9.1s-0.4,6.3,3.2,14.9c3.6,8.6,11.3,15.9,11.3,15.9s3-3.1,7.6-4.9
				C285.1,377.2,281.6,367.2,275.3,360.4z"/>
		</g>
		<g>
			<path class="st4" d="M333.7,380.7c6.8-6.4,9.1-12.2,9.1-12.2s-6.3-0.4-14.9,3.2c-8.6,3.6-15.9,11.3-15.9,11.3s3.1,3,4.9,7.6
				C316.8,390.5,326.8,387,333.7,380.7z"/>
		</g>
		<g>
			<path class="st4" d="M335.6,414.1c9.3,0.3,15.1-2.2,15.1-2.2s-4.2-4.7-12.8-8.2c-8.6-3.5-19.3-3.3-19.3-3.3s0.1,4.3-1.9,8.8
				C316.7,409.1,326.3,413.7,335.6,414.1z"/>
			<path class="st4" d="M253,385.4c-9.3-0.3-15.1,2.2-15.1,2.2s4.2,4.7,12.8,8.2c8.6,3.5,19.3,3.3,19.3,3.3s-0.1-4.3,1.9-8.8
				C271.9,390.3,262.4,385.7,253,385.4z"/>
		</g>
		<g>
			<path class="st4" d="M275.3,360.4c-6.4-6.8-12.2-9.1-12.2-9.1s-0.4,6.3,3.2,14.9c3.6,8.6,11.3,15.9,11.3,15.9s3-3.1,7.6-4.9
				C285.1,377.2,281.6,367.2,275.3,360.4z"/>
		</g>
		<g>
			<path class="st4" d="M333.7,380.7c6.8-6.4,9.1-12.2,9.1-12.2s-6.3-0.4-14.9,3.2c-8.6,3.6-15.9,11.3-15.9,11.3s3.1,3,4.9,7.6
				C316.8,390.5,326.8,387,333.7,380.7z"/>
		</g>
		<g>
			<path class="st4" d="M323.3,367c3.9-8.5,3.7-14.8,3.7-14.8s-5.9,2.1-12.5,8.7c-6.6,6.6-10.4,16.6-10.4,16.6s4,1.6,7.4,5.1
				C311.6,382.6,319.5,375.5,323.3,367z"/>
		</g>
		<g>
			<path class="st4" d="M261.6,370.7c-8.5-3.9-14.8-3.7-14.8-3.7s2.1,5.9,8.7,12.5c6.6,6.6,16.6,10.4,16.6,10.4s1.6-4,5.1-7.4
				C277.2,382.5,270.1,374.6,261.6,370.7z"/>
		</g>
		<g>
			<path class="st4" d="M291.7,356.1c-3.3-8.7-7.9-13.1-7.9-13.1s-2.7,5.7-2.7,15c0.1,9.3,4.4,19,4.4,19s3.9-1.7,8.9-1.6
				C294.4,375.4,295,364.8,291.7,356.1z"/>
		</g>
		<g>
			<path class="st4" d="M250.7,402.3c-8.7,3.3-13.1,7.9-13.1,7.9s4.4,2.1,11.8,2.6c1,0.1,2,0.1,3.2,0.1c9.3-0.1,19-4.4,19-4.4
				s-1.7-3.9-1.6-8.9C270,399.6,259.4,399,250.7,402.3z"/>
			<path class="st4" d="M337.9,397.1c8.7-3.3,13.1-7.9,13.1-7.9s-5.7-2.7-15-2.7c-9.3,0.1-19,4.4-19,4.4s1.7,3.9,1.6,8.9
				C318.6,399.8,329.2,400.4,337.9,397.1z"/>
		</g>
		<circle class="st4" cx="294.3" cy="399.7" r="24.3"/>
	</g>
</g>
</svg>
