<?xml version="1.0" encoding="utf-8"?>
<!-- Generator: Adobe Illustrator 23.0.3, SVG Export Plug-In . SVG Version: 6.00 Build 0)  -->
<svg version="1.1" id="图层_1" xmlns="http://www.w3.org/2000/svg" xmlns:xlink="http://www.w3.org/1999/xlink" x="0px" y="0px"
	 viewBox="0 0 400 400" style="enable-background:new 0 0 400 400;" xml:space="preserve">
<style type="text/css">
	.st0{fill:none;stroke:#231815;stroke-width:2;stroke-linecap:round;stroke-linejoin:round;stroke-miterlimit:10;}
	.st1{fill:#FFFFFF;stroke:#231815;stroke-width:2;stroke-linecap:round;stroke-linejoin:round;stroke-miterlimit:10;}
	.st2{fill:#231815;}
</style>
<g>
	<polygon class="st0" points="229.1,89.5 192.2,89.5 173.7,121.5 192.2,153.5 229.1,153.5 247.6,121.5 	"/>
	<polygon class="st0" points="284.5,121.5 247.6,121.5 229.1,153.5 247.6,185.4 284.5,185.4 302.9,153.5 	"/>
	<polygon class="st0" points="173.7,121.5 136.8,121.5 118.4,153.5 136.8,185.4 173.7,185.4 192.2,153.5 	"/>
	<polygon class="st0" points="229.1,153.5 192.2,153.5 173.7,185.4 192.2,217.4 229.1,217.4 247.6,185.4 	"/>
	<polygon class="st0" points="229.1,216.2 192.2,216.2 173.7,248.2 192.2,280.2 229.1,280.2 247.6,248.2 	"/>
	<polygon class="st0" points="284.5,185.5 247.6,185.5 229.1,217.4 247.6,249.4 284.5,249.4 302.9,217.4 	"/>
	<polygon class="st0" points="173.7,185.5 136.8,185.5 118.4,217.4 136.8,249.4 173.7,249.4 192.2,217.4 	"/>
	<g>
		<path class="st1" d="M338.9,132.3c-2.4-4.4-7-7.3-12.3-7.3h-8.4c-7.7,0-14,6.3-14,14v12.9"/>
		<path class="st1" d="M327.7,158.4c6.2,6,9.3,12.8,7.9,21c-2.1,11.9-14.6,20.3-23.6,12.9c-9-7.4-12.7-9.5-17.7-10.7
			c-10.1-2.4-21.8-11.9-14.6-26.3c5.8-11.7,18.7-12.7,30.1-8.5"/>
		<path class="st2" d="M335.1,169.8c0,0-7.1,17.8-24.5,21.4l1.4,1.1c9,7.4,21.4-1,23.6-12.9c0.6-3.3,0.4-6.4-0.4-9.3L335.1,169.8z"
			/>
		<path class="st0" d="M335.1,169.8c0,0-7.1,17.8-24.5,21.4"/>
		<path class="st0" d="M280.5,144.9c0,0-4.6-5.9-12.4-4"/>
		<path class="st0" d="M286.8,141.7c0,0-2-10-9.9-12"/>
		<path class="st0" d="M289,179.7c16.9-11.2,17.7-33.9,17.7-33.9"/>
		<path class="st0" d="M325.1,158.5c-1.2,5.4-6.1,19.9-22.9,26.4"/>
		<circle class="st0" cx="291.1" cy="158" r="2.7"/>
		<path class="st1" d="M332.2,130.5h-8.4c-7.7,0-14,6.3-14,14v14l0,0h22.4c5.2,0,9.7-2.8,12.1-7c1.2-2.1,1.9-4.5,1.9-7l0,0
			C346.2,136.8,339.9,130.5,332.2,130.5z"/>
		<path class="st2" d="M325.1,158.5h-15.3v-11.7l-3.1-1c0,0-0.8,22.6-17.7,33.9c0,0,2,1,4.2,1.6c2.2,0.6,3.7,0.9,6,2
			c2.2,1.1,3.1,1.7,3.1,1.7C319,178.4,323.8,163.9,325.1,158.5"/>
	</g>
	<g>
		<path class="st1" d="M64.7,217.2c3.5-6.5,10.4-10.9,18.3-10.9h12.5c11.5,0,20.8,9.3,20.8,20.8v18.4"/>
		<path class="st1" d="M81.3,256c-9.2,9-13.9,19.1-11.7,31.2c3.2,17.7,21.7,30.1,35,19.1s18.9-14.2,26.3-15.9
			c15-3.5,32.4-17.7,21.7-39.1c-8.7-17.4-27.8-18.9-44.8-12.6"/>
		<path class="st2" d="M70.3,272.9c0,0,10.6,26.5,36.3,31.8l-2,1.7c-13.3,11-31.8-1.4-35-19.1c-0.9-4.9-0.6-9.5,0.6-13.9L70.3,272.9
			z"/>
		<path class="st0" d="M70.3,272.9c0,0,10.6,26.5,36.3,31.8"/>
		<path class="st0" d="M151.4,236c0,0,6.8-8.8,18.5-6"/>
		<path class="st0" d="M142.1,231.2c0,0,3-14.8,14.7-17.8"/>
		<path class="st0" d="M138.8,287.7c-25.2-16.7-26.3-50.4-26.3-50.4"/>
		<path class="st0" d="M85.1,256.2c1.9,8,9,29.5,34,39.3"/>
		<circle class="st0" cx="135.7" cy="255.4" r="4.1"/>
		<path class="st1" d="M74.6,214.6h12.5c11.5,0,20.8,9.3,20.8,20.8v20.8l0,0H74.6c-7.7,0-14.4-4.2-18-10.4
			c-1.8-3.1-2.8-6.6-2.8-10.4l0,0C53.8,224,63.2,214.6,74.6,214.6z"/>
		<path class="st2" d="M85.1,256.2h22.7v-17.4l4.6-1.4c0,0,1.1,33.6,26.3,50.3c0,0-2.9,1.5-6.2,2.3c-3.3,0.8-5.5,1.3-8.9,2.9
			c-3.3,1.6-4.6,2.5-4.6,2.5C94.2,285.7,87,264.2,85.1,256.2"/>
	</g>
</g>
</svg>
