<?xml version="1.0" standalone="no"?><!DOCTYPE svg PUBLIC "-//W3C//DTD SVG 1.1//EN" "http://www.w3.org/Graphics/SVG/1.1/DTD/svg11.dtd"><svg t="1635825050301" class="icon" viewBox="0 0 1024 1024" version="1.1" xmlns="http://www.w3.org/2000/svg" p-id="1490" xmlns:xlink="http://www.w3.org/1999/xlink" width="200" height="200"><defs><style type="text/css"></style></defs><path d="M853.312 341.312h-170.624v-189.44A152.512 152.512 0 0 0 530.752 0h-378.88A152.448 152.448 0 0 0 0 151.872v378.88a152.448 152.448 0 0 0 151.872 151.936h189.44v170.624A170.688 170.688 0 0 0 512 1024h341.312A170.688 170.688 0 0 0 1024 853.312V512a170.688 170.688 0 0 0-170.688-170.688zM341.312 512v56.896h-189.44a38.144 38.144 0 0 1-38.08-38.144v-378.88a38.144 38.144 0 0 1 38.08-38.08h378.88a38.144 38.144 0 0 1 38.144 38.08v189.44H512A170.688 170.688 0 0 0 341.312 512z" fill="#D0D0D0" p-id="1491"></path></svg>