<svg id="Layer 1" data-name="Layer 1" xmlns="http://www.w3.org/2000/svg" xmlns:xlink="http://www.w3.org/1999/xlink"
     viewBox="0 0 1200 1200">
    <defs>
        <style>
            .cls-1,.cls-112{fill:none;}.cls-2{clip-path:url(#clip-path);}.cls-3{fill:#ac36ff;}.cls-4{fill:#b13aff;}.cls-5{fill:#bb41ff;}.cls-6{fill:#a230ff;}.cls-7{fill:#9d2aff;}.cls-8{fill:#b03bff;}.cls-9{fill:#b940ff;}.cls-10{fill:#c64aff;}.cls-11{fill:#9a28ff;}.cls-12{fill:#9826ff;}.cls-13{fill:#9524ff;}.cls-14{fill:#a22dff;}.cls-15{fill:#ae37ff;}.cls-16{fill:#c347ff;}.cls-17{fill:#d051ff;}.cls-18{fill:#8418ff;}.cls-19{fill:#9121ff;}.cls-20{fill:#8e1fff;}.cls-21{fill:#8c1eff;}.cls-22{fill:#9d2bff;}.cls-23{fill:#a934ff;}.cls-24{fill:#b53cff;}.cls-25{fill:#c045ff;}.cls-26{fill:#cb4dff;}.cls-27{fill:#d253ff;}.cls-28{fill:#8217ff;}.cls-29{fill:#8114ff;}.cls-30{fill:#8a1cff;}.cls-31{fill:#9423ff;}.cls-32{fill:#a431ff;}.cls-33{fill:#af39ff;}.cls-34{fill:#bd44ff;}.cls-35{fill:#c94bff;}.cls-36{fill:#770eff;}.cls-37{fill:#760eff;}.cls-38{fill:#7c11ff;}.cls-39{fill:#891cff;}.cls-40{fill:#8d1eff;}.cls-41{fill:#9122ff;}.cls-42{fill:#9928ff;}.cls-43{fill:#9f2dff;}.cls-44{fill:#ad38ff;}.cls-45{fill:#b43eff;}.cls-46{fill:#be43ff;}.cls-47{fill:#9626ff;}.cls-48{fill:#8e20ff;}.cls-49{fill:#881bff;}.cls-50{fill:#871aff;}.cls-51{fill:#8f20ff;}.cls-52{fill:#881cff;}.cls-53{fill:#8d1fff;}.cls-54{fill:#9322ff;}.cls-55{fill:#a22fff;}.cls-56{fill:#b23bff;}.cls-57{fill:#a42eff;}.cls-58{fill:#9926ff;}.cls-59{fill:#9927ff;}.cls-60{fill:#9825ff;}.cls-61{fill:#9f2cff;}.cls-62{fill:#9a29ff;}.cls-63{fill:#891bff;}.cls-64{fill:#8b1dff;}.cls-65{fill:#a532ff;}.cls-66{fill:#a832ff;}.cls-67{fill:#a733ff;}.cls-68{fill:#a632ff;}.cls-69{fill:#a430ff;}.cls-70{fill:#a12eff;}.cls-71{fill:#a22eff;}.cls-72{fill:#9c2aff;}.cls-73{fill:#9c2bff;}.cls-74{fill:#8c1dff;}.cls-75{fill:#a835ff;}.cls-76{fill:#a833ff;}.cls-77{fill:#ae38ff;}.cls-78{fill:#a935ff;}.cls-79{fill:#a12dff;}.cls-80{fill:#a631ff;}.cls-81{fill:#ab37ff;}.cls-82{fill:#b33bff;}.cls-83{fill:#a42fff;}.cls-84{fill:#9d2cff;}.cls-85{fill:#9c29ff;}.cls-86{fill:#8015ff;}.cls-87{fill:#8619ff;}.cls-88{fill:#9324ff;}.cls-89{fill:#9223ff;}.cls-90{fill:#9222ff;}.cls-91{fill:#b941ff;}.cls-92{fill:#bd42ff;}.cls-93{fill:#9b2aff;}.cls-94{fill:#7e14ff;}.cls-95{fill:#ba42ff;}.cls-96{fill:#b83fff;}.cls-97{fill:#7910ff;}.cls-98{fill:#b63eff;}.cls-99{fill:#cc4eff;}.cls-100{fill:#c146ff;}.cls-101{fill:#b33cff;}.cls-102{fill:#a02cff;}.cls-103{fill:#8a1dff;}.cls-104{fill:#9021ff;}.cls-105{fill:#c549ff;}.cls-106{fill:#bd43ff;}.cls-107,.cls-118{fill:#011c30;}.cls-108{fill:#ffb600;}.cls-109{fill:#231815;}.cls-110{fill:#ffe67b;}.cls-111,.cls-114{fill:#ffce00;}.cls-112,.cls-118{stroke:#ffce00;stroke-miterlimit:10;}.cls-113{font-size:30px;fill:#fcffff;font-family:PingFang-SC-Heavy,
            PingFang
            SC;font-weight:800;}.cls-114,.cls-116,.cls-117{stroke:#101010;stroke-linecap:round;stroke-linejoin:round;stroke-width:2px;}.cls-115,.cls-117{fill:#101010;}.cls-116{fill:url(#gradient_14);}.cls-119,.cls-121{fill:#fff;}.cls-119,.cls-120{fill-rule:evenodd;}.cls-120{fill:#a3a6b3;}
        </style>
        <clipPath id="clip-path">
            <rect class="cls-1" width="1200" height="1200" transform="translate(1200 1200) rotate(180)"/>
        </clipPath>
        <linearGradient id="gradient_14" x1="670.46" y1="690.53" x2="860.06" y2="513.3" gradientUnits="userSpaceOnUse">
            <stop offset="0" stop-color="#ffce00"/>
            <stop offset="1" stop-color="#ffce00"/>
        </linearGradient>
    </defs>
    <title>profile-card</title>
    <g class="cls-2">
        <polygon class="cls-3"
                 points="876.24 -2.32 876.24 56.41 825.38 85.77 774.53 56.41 774.53 -2.32 825.38 -31.68 876.24 -2.32"/>
        <polygon class="cls-4"
                 points="927.1 85.77 927.1 144.5 876.24 173.86 825.38 144.5 825.38 85.77 876.24 56.41 927.1 85.77"/>
        <polygon class="cls-5"
                 points="977.96 -2.32 977.96 56.41 927.1 85.77 876.24 56.41 876.24 -2.32 927.1 -31.68 977.96 -2.32"/>
        <polygon class="cls-6"
                 points="774.53 -2.32 774.53 56.41 723.67 85.77 672.81 56.41 672.81 -2.32 723.67 -31.68 774.53 -2.32"/>
        <polygon class="cls-7"
                 points="825.38 85.77 825.38 144.5 774.53 173.86 723.67 144.5 723.67 85.77 774.53 56.41 825.38 85.77"/>
        <polygon class="cls-8"
                 points="977.96 173.86 977.96 232.59 927.1 261.95 876.24 232.59 876.24 173.86 927.1 144.5 977.96 173.86"/>
        <polygon class="cls-9"
                 points="1028.82 85.77 1028.82 144.5 977.96 173.86 927.1 144.5 927.1 85.77 977.96 56.41 1028.82 85.77"/>
        <polygon class="cls-10"
                 points="1079.67 -2.32 1079.67 56.41 1028.82 85.77 977.96 56.41 977.96 -2.32 1028.82 -31.68 1079.67 -2.32"/>
        <polygon class="cls-11"
                 points="672.81 -2.32 672.81 56.41 621.95 85.77 571.09 56.41 571.09 -2.32 621.95 -31.68 672.81 -2.32"/>
        <polygon class="cls-12"
                 points="723.67 85.77 723.67 144.5 672.81 173.86 621.95 144.5 621.95 85.77 672.81 56.41 723.67 85.77"/>
        <polygon class="cls-13"
                 points="774.53 173.86 774.53 232.59 723.67 261.95 672.81 232.59 672.81 173.86 723.67 144.5 774.53 173.86"/>
        <polygon class="cls-14"
                 points="876.24 173.86 876.24 232.59 825.38 261.95 774.53 232.59 774.53 173.86 825.38 144.5 876.24 173.86"/>
        <polygon class="cls-15"
                 points="1028.82 261.95 1028.82 320.68 977.96 350.04 927.1 320.68 927.1 261.95 977.96 232.59 1028.82 261.95"/>
        <polygon class="cls-9"
                 points="1079.67 173.86 1079.67 232.59 1028.82 261.95 977.96 232.59 977.96 173.86 1028.82 144.5 1079.67 173.86"/>
        <polygon class="cls-16"
                 points="1130.53 85.77 1130.53 144.5 1079.67 173.86 1028.82 144.5 1028.82 85.77 1079.67 56.41 1130.53 85.77"/>
        <polygon class="cls-17"
                 points="1181.39 -2.32 1181.39 56.41 1130.53 85.77 1079.67 56.41 1079.67 -2.32 1130.53 -31.68 1181.39 -2.32"/>
        <polygon class="cls-18"
                 points="571.09 -2.32 571.09 56.41 520.24 85.77 469.38 56.41 469.38 -2.32 520.24 -31.68 571.09 -2.32"/>
        <polygon class="cls-19"
                 points="621.95 85.77 621.95 144.5 571.09 173.86 520.24 144.5 520.24 85.77 571.09 56.41 621.95 85.77"/>
        <polygon class="cls-20"
                 points="672.81 173.86 672.81 232.59 621.95 261.95 571.09 232.59 571.09 173.86 621.95 144.5 672.81 173.86"/>
        <polygon class="cls-21"
                 points="723.67 261.95 723.67 320.68 672.81 350.04 621.95 320.68 621.95 261.95 672.81 232.59 723.67 261.95"/>
        <polygon class="cls-13"
                 points="825.38 261.95 825.38 320.68 774.53 350.04 723.67 320.68 723.67 261.95 774.53 232.59 825.38 261.95"/>
        <polygon class="cls-22"
                 points="927.1 261.95 927.1 320.68 876.24 350.04 825.38 320.68 825.38 261.95 876.24 232.59 927.1 261.95"/>
        <polygon class="cls-23"
                 points="1079.67 350.04 1079.67 408.76 1028.82 438.13 977.96 408.76 977.96 350.04 1028.82 320.68 1079.67 350.04"/>
        <polygon class="cls-24"
                 points="1130.53 261.95 1130.53 320.68 1079.67 350.04 1028.82 320.68 1028.82 261.95 1079.67 232.59 1130.53 261.95"/>
        <polygon class="cls-25"
                 points="1181.39 173.86 1181.39 232.59 1130.53 261.95 1079.67 232.59 1079.67 173.86 1130.53 144.5 1181.39 173.86"/>
        <polygon class="cls-26"
                 points="1218.04 77.57 1181.39 56.41 1130.53 85.77 1130.53 144.5 1181.39 173.86 1218.04 152.7 1218.04 77.57"/>
        <polygon class="cls-27" points="1218.04 -23.48 1181.39 -2.32 1181.39 56.41 1218.04 77.57 1218.04 -23.48"/>
        <polygon class="cls-18"
                 points="469.38 -2.32 469.38 56.41 418.52 85.77 367.66 56.41 367.66 -2.32 418.52 -31.68 469.38 -2.32"/>
        <polygon class="cls-28"
                 points="520.24 85.77 520.24 144.5 469.38 173.86 418.52 144.5 418.52 85.77 469.38 56.41 520.24 85.77"/>
        <polygon class="cls-29"
                 points="571.09 173.86 571.09 232.59 520.24 261.95 469.38 232.59 469.38 173.86 520.24 144.5 571.09 173.86"/>
        <polygon class="cls-21"
                 points="621.95 261.95 621.95 320.68 571.09 350.04 520.24 320.68 520.24 261.95 571.09 232.59 621.95 261.95"/>
        <polygon class="cls-30"
                 points="672.81 350.04 672.81 408.76 621.95 438.13 571.09 408.76 571.09 350.04 621.95 320.68 672.81 350.04"/>
        <polygon class="cls-21"
                 points="774.53 350.04 774.53 408.76 723.67 438.13 672.81 408.76 672.81 350.04 723.67 320.68 774.53 350.04"/>
        <polygon class="cls-31"
                 points="876.24 350.04 876.24 408.76 825.38 438.13 774.53 408.76 774.53 350.04 825.38 320.68 876.24 350.04"/>
        <polygon class="cls-32"
                 points="977.96 350.04 977.96 408.76 927.1 438.13 876.24 408.76 876.24 350.04 927.1 320.68 977.96 350.04"/>
        <polygon class="cls-33"
                 points="1130.53 438.13 1130.53 496.85 1079.67 526.22 1028.82 496.85 1028.82 438.13 1079.67 408.76 1130.53 438.13"/>
        <polygon class="cls-24"
                 points="1181.39 350.04 1181.39 408.76 1130.53 438.13 1079.67 408.76 1079.67 350.04 1130.53 320.68 1181.39 350.04"/>
        <polygon class="cls-34"
                 points="1218.04 253.75 1181.39 232.59 1130.53 261.95 1130.53 320.68 1181.39 350.04 1218.04 328.88 1218.04 253.75"/>
        <polygon class="cls-35" points="1218.04 152.7 1181.39 173.86 1181.39 232.59 1218.04 253.75 1218.04 152.7"/>
        <polygon class="cls-36"
                 points="367.66 -2.32 367.66 56.41 316.8 85.77 265.94 56.41 265.94 -2.32 316.8 -31.68 367.66 -2.32"/>
        <polygon class="cls-37"
                 points="418.52 85.77 418.52 144.5 367.66 173.86 316.8 144.5 316.8 85.77 367.66 56.41 418.52 85.77"/>
        <polygon class="cls-36"
                 points="469.38 173.86 469.38 232.59 418.52 261.95 367.66 232.59 367.66 173.86 418.52 144.5 469.38 173.86"/>
        <polygon class="cls-38"
                 points="520.24 261.95 520.24 320.68 469.38 350.04 418.52 320.68 418.52 261.95 469.38 232.59 520.24 261.95"/>
        <polygon class="cls-28"
                 points="571.09 350.04 571.09 408.76 520.24 438.13 469.38 408.76 469.38 350.04 520.24 320.68 571.09 350.04"/>
        <polygon class="cls-39"
                 points="621.95 438.13 621.95 496.85 571.09 526.22 520.24 496.85 520.24 438.13 571.09 408.76 621.95 438.13"/>
        <polygon class="cls-40"
                 points="723.67 438.13 723.67 496.85 672.81 526.22 621.95 496.85 621.95 438.13 672.81 408.76 723.67 438.13"/>
        <polygon class="cls-41"
                 points="825.38 438.13 825.38 496.85 774.53 526.22 723.67 496.85 723.67 438.13 774.53 408.76 825.38 438.13"/>
        <polygon class="cls-42"
                 points="927.1 438.13 927.1 496.85 876.24 526.22 825.38 496.85 825.38 438.13 876.24 408.76 927.1 438.13"/>
        <polygon class="cls-43"
                 points="1028.82 438.13 1028.82 496.85 977.96 526.22 927.1 496.85 927.1 438.13 977.96 408.76 1028.82 438.13"/>
        <polygon class="cls-44"
                 points="1181.39 526.22 1181.39 584.94 1130.53 614.3 1079.67 584.94 1079.67 526.22 1130.53 496.85 1181.39 526.22"/>
        <polygon class="cls-45"
                 points="1218.04 429.92 1181.39 408.76 1130.53 438.13 1130.53 496.85 1181.39 526.22 1218.04 505.06 1218.04 429.92"/>
        <polygon class="cls-46" points="1218.04 328.88 1181.39 350.04 1181.39 408.76 1218.04 429.92 1218.04 328.88"/>
        <polygon class="cls-47"
                 points="265.94 -2.32 265.94 56.41 215.09 85.77 164.23 56.41 164.23 -2.32 215.09 -31.68 265.94 -2.32"/>
        <polygon class="cls-48"
                 points="316.8 85.77 316.8 144.5 265.94 173.86 215.09 144.5 215.09 85.77 265.94 56.41 316.8 85.77"/>
        <polygon class="cls-49"
                 points="367.66 173.86 367.66 232.59 316.8 261.95 265.94 232.59 265.94 173.86 316.8 144.5 367.66 173.86"/>
        <polygon class="cls-50"
                 points="418.52 261.95 418.52 320.68 367.66 350.04 316.8 320.68 316.8 261.95 367.66 232.59 418.52 261.95"/>
        <polygon class="cls-51"
                 points="469.38 350.04 469.38 408.76 418.52 438.13 367.66 408.76 367.66 350.04 418.52 320.68 469.38 350.04"/>
        <polygon class="cls-51"
                 points="520.24 438.13 520.24 496.85 469.38 526.22 418.52 496.85 418.52 438.13 469.38 408.76 520.24 438.13"/>
        <polygon class="cls-52"
                 points="571.09 526.22 571.09 584.94 520.24 614.3 469.38 584.94 469.38 526.22 520.24 496.85 571.09 526.22"/>
        <polygon class="cls-20"
                 points="672.81 526.22 672.81 584.94 621.95 614.3 571.09 584.94 571.09 526.22 621.95 496.85 672.81 526.22"/>
        <polygon class="cls-30"
                 points="774.53 526.22 774.53 584.94 723.67 614.3 672.81 584.94 672.81 526.22 723.67 496.85 774.53 526.22"/>
        <polygon class="cls-53"
                 points="876.24 526.22 876.24 584.94 825.38 614.3 774.53 584.94 774.53 526.22 825.38 496.85 876.24 526.22"/>
        <polygon class="cls-54"
                 points="977.96 526.22 977.96 584.94 927.1 614.3 876.24 584.94 876.24 526.22 927.1 496.85 977.96 526.22"/>
        <polygon class="cls-55"
                 points="1079.67 526.22 1079.67 584.94 1028.82 614.3 977.96 584.94 977.96 526.22 1028.82 496.85 1079.67 526.22"/>
        <polygon class="cls-56"
                 points="1218.04 606.1 1181.39 584.94 1130.53 614.3 1130.53 673.03 1181.39 702.39 1218.04 681.24 1218.04 606.1"/>
        <polygon class="cls-9" points="1218.04 505.06 1181.39 526.22 1181.39 584.94 1218.04 606.1 1218.04 505.06"/>
        <polygon class="cls-57"
                 points="164.23 -2.32 164.23 56.41 113.37 85.77 62.51 56.41 62.51 -2.32 113.37 -31.68 164.23 -2.32"/>
        <polygon class="cls-58"
                 points="215.09 85.77 215.09 144.5 164.23 173.86 113.37 144.5 113.37 85.77 164.23 56.41 215.09 85.77"/>
        <polygon class="cls-59"
                 points="265.94 173.86 265.94 232.59 215.09 261.95 164.23 232.59 164.23 173.86 215.09 144.5 265.94 173.86"/>
        <polygon class="cls-60"
                 points="316.8 261.95 316.8 320.68 265.94 350.04 215.09 320.68 215.09 261.95 265.94 232.59 316.8 261.95"/>
        <polygon class="cls-61"
                 points="367.66 350.04 367.66 408.76 316.8 438.13 265.94 408.76 265.94 350.04 316.8 320.68 367.66 350.04"/>
        <polygon class="cls-22"
                 points="418.52 438.13 418.52 496.85 367.66 526.22 316.8 496.85 316.8 438.13 367.66 408.76 418.52 438.13"/>
        <polygon class="cls-62"
                 points="469.38 526.22 469.38 584.94 418.52 614.3 367.66 584.94 367.66 526.22 418.52 496.85 469.38 526.22"/>
        <polygon class="cls-62"
                 points="520.24 614.3 520.24 673.03 469.38 702.39 418.52 673.03 418.52 614.3 469.38 584.94 520.24 614.3"/>
        <polygon class="cls-63"
                 points="621.95 614.3 621.95 673.03 571.09 702.39 520.24 673.03 520.24 614.3 571.09 584.94 621.95 614.3"/>
        <polygon class="cls-53"
                 points="723.67 614.3 723.67 673.03 672.81 702.39 621.95 673.03 621.95 614.3 672.81 584.94 723.67 614.3"/>
        <polygon class="cls-64"
                 points="825.38 614.3 825.38 673.03 774.53 702.39 723.67 673.03 723.67 614.3 774.53 584.94 825.38 614.3"/>
        <polygon class="cls-20"
                 points="927.1 614.3 927.1 673.03 876.24 702.39 825.38 673.03 825.38 614.3 876.24 584.94 927.1 614.3"/>
        <polygon class="cls-47"
                 points="1028.82 614.3 1028.82 673.03 977.96 702.39 927.1 673.03 927.1 614.3 977.96 584.94 1028.82 614.3"/>
        <polygon class="cls-65"
                 points="1130.53 614.3 1130.53 673.03 1079.67 702.39 1028.82 673.03 1028.82 614.3 1079.67 584.94 1130.53 614.3"/>
        <polygon class="cls-66" points="1218.04 681.24 1181.39 702.39 1181.39 761.12 1218.04 782.28 1218.04 681.24"/>
        <polygon class="cls-67"
                 points="11.65 -31.68 -25.42 -10.28 -25.42 64.36 11.65 85.77 62.51 56.41 62.51 -2.32 11.65 -31.68"/>
        <polygon class="cls-68"
                 points="113.37 85.77 113.37 144.5 62.51 173.86 11.65 144.5 11.65 85.77 62.51 56.41 113.37 85.77"/>
        <polygon class="cls-69"
                 points="164.23 173.86 164.23 232.59 113.37 261.95 62.51 232.59 62.51 173.86 113.37 144.5 164.23 173.86"/>
        <polygon class="cls-70"
                 points="215.09 261.95 215.09 320.68 164.23 350.04 113.37 320.68 113.37 261.95 164.23 232.59 215.09 261.95"/>
        <polygon class="cls-70"
                 points="265.94 350.04 265.94 408.76 215.09 438.13 164.23 408.76 164.23 350.04 215.09 320.68 265.94 350.04"/>
        <polygon class="cls-71"
                 points="316.8 438.13 316.8 496.85 265.94 526.22 215.09 496.85 215.09 438.13 265.94 408.76 316.8 438.13"/>
        <polygon class="cls-67"
                 points="367.66 526.22 367.66 584.94 316.8 614.3 265.94 584.94 265.94 526.22 316.8 496.85 367.66 526.22"/>
        <polygon class="cls-72"
                 points="418.52 614.3 418.52 673.03 367.66 702.39 316.8 673.03 316.8 614.3 367.66 584.94 418.52 614.3"/>
        <polygon class="cls-73"
                 points="469.38 702.39 469.38 761.12 418.52 790.48 367.66 761.12 367.66 702.39 418.52 673.03 469.38 702.39"/>
        <polygon class="cls-22"
                 points="571.09 702.39 571.09 761.12 520.24 790.48 469.38 761.12 469.38 702.39 520.24 673.03 571.09 702.39"/>
        <polygon class="cls-22"
                 points="672.81 702.39 672.81 761.12 621.95 790.48 571.09 761.12 571.09 702.39 621.95 673.03 672.81 702.39"/>
        <polygon class="cls-21"
                 points="774.53 702.39 774.53 761.12 723.67 790.48 672.81 761.12 672.81 702.39 723.67 673.03 774.53 702.39"/>
        <polygon class="cls-21"
                 points="876.24 702.39 876.24 761.12 825.38 790.48 774.53 761.12 774.53 702.39 825.38 673.03 876.24 702.39"/>
        <polygon class="cls-74"
                 points="977.96 702.39 977.96 761.12 927.1 790.48 876.24 761.12 876.24 702.39 927.1 673.03 977.96 702.39"/>
        <polygon class="cls-72"
                 points="1079.67 702.39 1079.67 761.12 1028.82 790.48 977.96 761.12 977.96 702.39 1028.82 673.03 1079.67 702.39"/>
        <polygon class="cls-3"
                 points="1181.39 702.39 1181.39 761.12 1130.53 790.48 1079.67 761.12 1079.67 702.39 1130.53 673.03 1181.39 702.39"/>
        <polygon class="cls-75" points="-25.42 64.36 -25.42 165.9 11.65 144.5 11.65 85.77 -25.42 64.36"/>
        <polygon class="cls-23"
                 points="11.65 144.5 -25.42 165.9 -25.42 240.54 11.65 261.95 62.51 232.59 62.51 173.86 11.65 144.5"/>
        <polygon class="cls-76"
                 points="113.37 261.95 113.37 320.68 62.51 350.04 11.65 320.68 11.65 261.95 62.51 232.59 113.37 261.95"/>
        <polygon class="cls-66"
                 points="164.23 350.04 164.23 408.76 113.37 438.13 62.51 408.76 62.51 350.04 113.37 320.68 164.23 350.04"/>
        <polygon class="cls-77"
                 points="215.09 438.13 215.09 496.85 164.23 526.22 113.37 496.85 113.37 438.13 164.23 408.76 215.09 438.13"/>
        <polygon class="cls-76"
                 points="265.94 526.22 265.94 584.94 215.09 614.3 164.23 584.94 164.23 526.22 215.09 496.85 265.94 526.22"/>
        <polygon class="cls-78"
                 points="316.8 614.3 316.8 673.03 265.94 702.39 215.09 673.03 215.09 614.3 265.94 584.94 316.8 614.3"/>
        <polygon class="cls-79"
                 points="367.66 702.39 367.66 761.12 316.8 790.48 265.94 761.12 265.94 702.39 316.8 673.03 367.66 702.39"/>
        <polygon class="cls-61"
                 points="418.52 790.48 418.52 849.21 367.66 878.57 316.8 849.21 316.8 790.48 367.66 761.12 418.52 790.48"/>
        <polygon class="cls-11"
                 points="520.24 790.48 520.24 849.21 469.38 878.57 418.52 849.21 418.52 790.48 469.38 761.12 520.24 790.48"/>
        <polygon class="cls-70"
                 points="621.95 790.48 621.95 849.21 571.09 878.57 520.24 849.21 520.24 790.48 571.09 761.12 621.95 790.48"/>
        <polygon class="cls-80"
                 points="723.67 790.48 723.67 849.21 672.81 878.57 621.95 849.21 621.95 790.48 672.81 761.12 723.67 790.48"/>
        <polygon class="cls-64"
                 points="825.38 790.48 825.38 849.21 774.53 878.57 723.67 849.21 723.67 790.48 774.53 761.12 825.38 790.48"/>
        <polygon class="cls-18"
                 points="927.1 790.48 927.1 849.21 876.24 878.57 825.38 849.21 825.38 790.48 876.24 761.12 927.1 790.48"/>
        <polygon class="cls-51"
                 points="1028.82 790.48 1028.82 849.21 977.96 878.57 927.1 849.21 927.1 790.48 977.96 761.12 1028.82 790.48"/>
        <polygon class="cls-22"
                 points="1130.53 790.48 1130.53 849.21 1079.67 878.57 1028.82 849.21 1028.82 790.48 1079.67 761.12 1130.53 790.48"/>
        <polygon class="cls-22"
                 points="1218.04 782.28 1181.39 761.12 1130.53 790.48 1130.53 849.21 1181.39 878.57 1218.04 857.41 1218.04 782.28"/>
        <polygon class="cls-65" points="-25.42 240.54 -25.42 342.08 11.65 320.68 11.65 261.95 -25.42 240.54"/>
        <polygon class="cls-81"
                 points="11.65 320.68 -25.42 342.08 -25.42 416.72 11.65 438.13 62.51 408.76 62.51 350.04 11.65 320.68"/>
        <polygon class="cls-82"
                 points="113.37 438.13 113.37 496.85 62.51 526.22 11.65 496.85 11.65 438.13 62.51 408.76 113.37 438.13"/>
        <polygon class="cls-4"
                 points="164.23 526.22 164.23 584.94 113.37 614.3 62.51 584.94 62.51 526.22 113.37 496.85 164.23 526.22"/>
        <polygon class="cls-80"
                 points="215.09 614.3 215.09 673.03 164.23 702.39 113.37 673.03 113.37 614.3 164.23 584.94 215.09 614.3"/>
        <polygon class="cls-83"
                 points="265.94 702.39 265.94 761.12 215.09 790.48 164.23 761.12 164.23 702.39 215.09 673.03 265.94 702.39"/>
        <polygon class="cls-80"
                 points="316.8 790.48 316.8 849.21 265.94 878.57 215.09 849.21 215.09 790.48 265.94 761.12 316.8 790.48"/>
        <polygon class="cls-70"
                 points="367.66 878.57 367.66 937.3 316.8 966.66 265.94 937.3 265.94 878.57 316.8 849.21 367.66 878.57"/>
        <polygon class="cls-55"
                 points="469.38 878.57 469.38 937.3 418.52 966.66 367.66 937.3 367.66 878.57 418.52 849.21 469.38 878.57"/>
        <polygon class="cls-84"
                 points="571.09 878.57 571.09 937.3 520.24 966.66 469.38 937.3 469.38 878.57 520.24 849.21 571.09 878.57"/>
        <polygon class="cls-85"
                 points="672.81 878.57 672.81 937.3 621.95 966.66 571.09 937.3 571.09 878.57 621.95 849.21 672.81 878.57"/>
        <polygon class="cls-79"
                 points="774.53 878.57 774.53 937.3 723.67 966.66 672.81 937.3 672.81 878.57 723.67 849.21 774.53 878.57"/>
        <polygon class="cls-86"
                 points="876.24 878.57 876.24 937.3 825.38 966.66 774.53 937.3 774.53 878.57 825.38 849.21 876.24 878.57"/>
        <polygon class="cls-87"
                 points="977.96 878.57 977.96 937.3 927.1 966.66 876.24 937.3 876.24 878.57 927.1 849.21 977.96 878.57"/>
        <polygon class="cls-88"
                 points="1079.67 878.57 1079.67 937.3 1028.82 966.66 977.96 937.3 977.96 878.57 1028.82 849.21 1079.67 878.57"/>
        <polygon class="cls-89"
                 points="1181.39 878.57 1181.39 937.3 1130.53 966.66 1079.67 937.3 1079.67 878.57 1130.53 849.21 1181.39 878.57"/>
        <polygon class="cls-90" points="1218.04 857.41 1181.39 878.57 1181.39 937.3 1218.04 958.46 1218.04 857.41"/>
        <polygon class="cls-91" points="-25.42 416.72 -25.42 518.26 11.65 496.85 11.65 438.13 -25.42 416.72"/>
        <polygon class="cls-92"
                 points="11.65 496.85 -25.42 518.26 -25.42 592.9 11.65 614.3 62.51 584.94 62.51 526.22 11.65 496.85"/>
        <polygon class="cls-23"
                 points="113.37 614.3 113.37 673.03 62.51 702.39 11.65 673.03 11.65 614.3 62.51 584.94 113.37 614.3"/>
        <polygon class="cls-23"
                 points="164.23 702.39 164.23 761.12 113.37 790.48 62.51 761.12 62.51 702.39 113.37 673.03 164.23 702.39"/>
        <polygon class="cls-77"
                 points="215.09 790.48 215.09 849.21 164.23 878.57 113.37 849.21 113.37 790.48 164.23 761.12 215.09 790.48"/>
        <polygon class="cls-66"
                 points="265.94 878.57 265.94 937.3 215.09 966.66 164.23 937.3 164.23 878.57 215.09 849.21 265.94 878.57"/>
        <polygon class="cls-23"
                 points="316.8 966.66 316.8 1025.39 265.94 1054.75 215.09 1025.39 215.09 966.66 265.94 937.3 316.8 966.66"/>
        <polygon class="cls-70"
                 points="418.52 966.66 418.52 1025.39 367.66 1054.75 316.8 1025.39 316.8 966.66 367.66 937.3 418.52 966.66"/>
        <polygon class="cls-72"
                 points="520.24 966.66 520.24 1025.39 469.38 1054.75 418.52 1025.39 418.52 966.66 469.38 937.3 520.24 966.66"/>
        <polygon class="cls-93"
                 points="621.95 966.66 621.95 1025.39 571.09 1054.75 520.24 1025.39 520.24 966.66 571.09 937.3 621.95 966.66"/>
        <polygon class="cls-71"
                 points="723.67 966.66 723.67 1025.39 672.81 1054.75 621.95 1025.39 621.95 966.66 672.81 937.3 723.67 966.66"/>
        <polygon class="cls-47"
                 points="825.38 966.66 825.38 1025.39 774.53 1054.75 723.67 1025.39 723.67 966.66 774.53 937.3 825.38 966.66"/>
        <polygon class="cls-94"
                 points="927.1 966.66 927.1 1025.39 876.24 1054.75 825.38 1025.39 825.38 966.66 876.24 937.3 927.1 966.66"/>
        <polygon class="cls-49"
                 points="1028.82 966.66 1028.82 1025.39 977.96 1054.75 927.1 1025.39 927.1 966.66 977.96 937.3 1028.82 966.66"/>
        <polygon class="cls-64"
                 points="1130.53 966.66 1130.53 1025.39 1079.67 1054.75 1028.82 1025.39 1028.82 966.66 1079.67 937.3 1130.53 966.66"/>
        <polygon class="cls-21"
                 points="1218.04 958.46 1181.39 937.3 1130.53 966.66 1130.53 1025.39 1181.39 1054.75 1218.04 1033.59 1218.04 958.46"/>
        <polygon class="cls-95" points="-25.42 592.9 -25.42 694.44 11.65 673.03 11.65 614.3 -25.42 592.9"/>
        <polygon class="cls-77"
                 points="11.65 673.03 -25.42 694.44 -25.42 769.08 11.65 790.48 62.51 761.12 62.51 702.39 11.65 673.03"/>
        <polygon class="cls-9"
                 points="113.37 790.48 113.37 849.21 62.51 878.57 11.65 849.21 11.65 790.48 62.51 761.12 113.37 790.48"/>
        <polygon class="cls-33"
                 points="164.23 878.57 164.23 937.3 113.37 966.66 62.51 937.3 62.51 878.57 113.37 849.21 164.23 878.57"/>
        <polygon class="cls-81"
                 points="215.09 966.66 215.09 1025.39 164.23 1054.75 113.37 1025.39 113.37 966.66 164.23 937.3 215.09 966.66"/>
        <polygon class="cls-96"
                 points="265.94 1054.75 265.94 1113.48 215.09 1142.84 164.23 1113.48 164.23 1054.75 215.09 1025.39 265.94 1054.75"/>
        <polygon class="cls-3"
                 points="367.66 1054.75 367.66 1113.48 316.8 1142.84 265.94 1113.48 265.94 1054.75 316.8 1025.39 367.66 1054.75"/>
        <polygon class="cls-68"
                 points="469.38 1054.75 469.38 1113.48 418.52 1142.84 367.66 1113.48 367.66 1054.75 418.52 1025.39 469.38 1054.75"/>
        <polygon class="cls-22"
                 points="571.09 1054.75 571.09 1113.48 520.24 1142.84 469.38 1113.48 469.38 1054.75 520.24 1025.39 571.09 1054.75"/>
        <polygon class="cls-58"
                 points="672.81 1054.75 672.81 1113.48 621.95 1142.84 571.09 1113.48 571.09 1054.75 621.95 1025.39 672.81 1054.75"/>
        <polygon class="cls-83"
                 points="774.53 1054.75 774.53 1113.48 723.67 1142.84 672.81 1113.48 672.81 1054.75 723.67 1025.39 774.53 1054.75"/>
        <polygon class="cls-97"
                 points="876.24 1054.75 876.24 1113.48 825.38 1142.84 774.53 1113.48 774.53 1054.75 825.38 1025.39 876.24 1054.75"/>
        <polygon class="cls-94"
                 points="977.96 1054.75 977.96 1113.48 927.1 1142.84 876.24 1113.48 876.24 1054.75 927.1 1025.39 977.96 1054.75"/>
        <polygon class="cls-18"
                 points="1079.67 1054.75 1079.67 1113.48 1028.82 1142.84 977.96 1113.48 977.96 1054.75 1028.82 1025.39 1079.67 1054.75"/>
        <polygon class="cls-18"
                 points="1181.39 1054.75 1181.39 1113.48 1130.53 1142.84 1079.67 1113.48 1079.67 1054.75 1130.53 1025.39 1181.39 1054.75"/>
        <polygon class="cls-21"
                 points="1218.04 1033.59 1181.39 1054.75 1181.39 1113.47 1218.04 1134.63 1218.04 1033.59"/>
        <polygon class="cls-95" points="-25.42 769.08 -25.42 870.62 11.65 849.21 11.65 790.48 -25.42 769.08"/>
        <polygon class="cls-56"
                 points="11.65 849.21 -25.42 870.62 -25.42 945.25 11.65 966.66 62.51 937.3 62.51 878.57 11.65 849.21"/>
        <polygon class="cls-98"
                 points="113.37 966.66 113.37 1025.39 62.51 1054.75 11.65 1025.39 11.65 966.66 62.51 937.3 113.37 966.66"/>
        <polygon class="cls-9"
                 points="164.23 1054.75 164.23 1113.48 113.37 1142.84 62.51 1113.48 62.51 1054.75 113.37 1025.39 164.23 1054.75"/>
        <polygon class="cls-99"
                 points="215.09 1142.84 215.09 1201.57 164.23 1230.93 113.37 1201.57 113.37 1142.84 164.23 1113.48 215.09 1142.84"/>
        <polygon class="cls-100"
                 points="316.8 1142.84 316.8 1201.57 265.94 1230.93 215.09 1201.57 215.09 1142.84 265.94 1113.48 316.8 1142.84"/>
        <polygon class="cls-101"
                 points="418.52 1142.84 418.52 1201.57 367.66 1230.93 316.8 1201.57 316.8 1142.84 367.66 1113.48 418.52 1142.84"/>
        <polygon class="cls-56"
                 points="520.24 1142.84 520.24 1201.57 469.38 1230.93 418.52 1201.57 418.52 1142.84 469.38 1113.48 520.24 1142.84"/>
        <polygon class="cls-43"
                 points="621.95 1142.84 621.95 1201.57 571.09 1230.93 520.24 1201.57 520.24 1142.84 571.09 1113.48 621.95 1142.84"/>
        <polygon class="cls-102"
                 points="723.67 1142.84 723.67 1201.57 672.81 1230.93 621.95 1201.57 621.95 1142.84 672.81 1113.48 723.67 1142.84"/>
        <polygon class="cls-41"
                 points="825.38 1142.84 825.38 1201.57 774.53 1230.93 723.67 1201.57 723.67 1142.84 774.53 1113.48 825.38 1142.84"/>
        <polygon class="cls-103"
                 points="927.1 1142.84 927.1 1201.57 876.24 1230.93 825.38 1201.57 825.38 1142.84 876.24 1113.48 927.1 1142.84"/>
        <polygon class="cls-90"
                 points="1028.82 1142.84 1028.82 1201.57 977.96 1230.93 927.1 1201.57 927.1 1142.84 977.96 1113.48 1028.82 1142.84"/>
        <polygon class="cls-50"
                 points="1130.53 1142.84 1130.53 1201.57 1079.67 1230.93 1028.82 1201.57 1028.82 1142.84 1079.67 1113.48 1130.53 1142.84"/>
        <polygon class="cls-104"
                 points="1218.04 1134.63 1181.39 1113.47 1130.53 1142.84 1130.53 1201.57 1181.39 1230.93 1218.04 1209.77 1218.04 1134.63"/>
        <polygon class="cls-105" points="-25.42 945.25 -25.42 1046.79 11.65 1025.39 11.65 966.66 -25.42 945.25"/>
        <polygon class="cls-106"
                 points="11.65 1025.39 -25.42 1046.79 -25.42 1121.43 11.65 1142.84 62.51 1113.47 62.51 1054.75 11.65 1025.39"/>
        <polygon class="cls-25"
                 points="113.37 1142.84 113.37 1201.57 62.51 1230.93 11.65 1201.57 11.65 1142.84 62.51 1113.48 113.37 1142.84"/>
        <polygon class="cls-10" points="-25.42 1121.43 -25.42 1222.97 11.65 1201.57 11.65 1142.84 -25.42 1121.43"/>
    </g>
    <rect class="cls-107" x="143" y="330" width="914" height="540" rx="26.86"
          transform="translate(-59.53 66.13) rotate(-6.01)"/>
    <path class="cls-1"
          d="M860.31,353a13.88,13.88,0,0,0-.18-3.43c.07,1.76,0,4.17,0,5.05A12.89,12.89,0,0,0,860.31,353Z"/>
    <path class="cls-1" d="M850.63,363.9a7.45,7.45,0,0,0,3.29-.8A12.09,12.09,0,0,0,860,355l-4.8,6.27Z"/>
    <path class="cls-108"
          d="M838.84,352.25c-10.21-.73-15.37-3.69-17.12-4.92a9.14,9.14,0,0,0,1.16,3c2.33,3.86,7.18,5.74,10.61,6.17,3.74.47,6.69,1.85,13.16,6.14a7.12,7.12,0,0,0,4,1.24l4.54-2.61L860,355c0-.15.08-.3.11-.45,0-.88.12-3.29,0-5.05a11.88,11.88,0,0,0-.32-1.34C858.8,349.05,853.55,353.31,838.84,352.25Z"/>
    <path class="cls-109" d="M860.07,354.9s0-.12,0-.33c0,.15-.07.3-.11.45Z"/>
    <path class="cls-109" d="M838.66,360l-.1-.05Z"/>
    <path class="cls-110"
          d="M851.22,316.75l-5.68.6a9.53,9.53,0,0,0-8.48,10.48l1,9.47h0l15.16-1.59a9.55,9.55,0,0,0,8.48-10.48h0A9.57,9.57,0,0,0,851.22,316.75Z"/>
    <path class="cls-109"
          d="M853.31,336.6l-16,1.69-1.09-10.37a10.44,10.44,0,0,1,9.27-11.46l5.69-.6a10.43,10.43,0,0,1,2.18,20.74Zm-14.46-.28,14.28-1.5a8.63,8.63,0,1,0-1.81-17.17l-5.69.59a8.65,8.65,0,0,0-7.68,9.49Z"/>
    <path class="cls-110"
          d="M833.38,357.41c-7-.88-15.62-6.49-11.77-16.77s16.12-10.37,25.26-5.86,14.93,10,14.33,18.23-8.45,14.77-15.05,10.39S836.85,357.85,833.38,357.41Z"/>
    <path class="cls-1"
          d="M859.81,348.18c-1.43-4.79-5.78-8.87-13.33-12.6-5.91-2.91-12.5-3.55-17.21-1.69a12.68,12.68,0,0,0-7.55,13.44c1.75,1.23,6.91,4.19,17.12,4.92C853.55,353.31,858.8,349.05,859.81,348.18Z"/>
    <path class="cls-111"
          d="M821.55,334.48a.89.89,0,0,1-.74-.27,7.54,7.54,0,0,0-7.77-1.62.89.89,0,0,1-1.14-.54.9.9,0,0,1,.54-1.15A9.34,9.34,0,0,1,822.1,333a.9.9,0,0,1-.55,1.51Z"/>
    <path class="cls-111"
          d="M825.56,331.83a.89.89,0,0,1-.95-.62h0c0-.06-2-6.08-6.81-6.77a.89.89,0,1,1,.25-1.77c6,.85,8.18,7.71,8.27,8a.9.9,0,0,1-.59,1.13A.86.86,0,0,1,825.56,331.83Z"/>
    <path class="cls-109" d="M829.26,338.94a2.75,2.75,0,1,0,3,2.45A2.74,2.74,0,0,0,829.26,338.94Z"/>
    <path class="cls-111"
          d="M886.25,340.73a3.34,3.34,0,0,1,2.11,2.95c0,.14,0,.39,0,.74a4.77,4.77,0,0,1-1.59,3.68,7.13,7.13,0,0,1-4,1.61l-6,.62a.23.23,0,0,1-.2-.06.19.19,0,0,1-.07-.19l.28-16.25a.39.39,0,0,1,.08-.21.31.31,0,0,1,.2-.11l5.79-.61c3.28-.34,5.06.73,5.32,3.21a5.39,5.39,0,0,1,0,.83,4.11,4.11,0,0,1-2,3.65C886.17,340.64,886.16,340.69,886.25,340.73Zm-1.63,5.2a2.37,2.37,0,0,0,.49-1.86,1.59,1.59,0,0,0-.67-1.23,2.27,2.27,0,0,0-1.55-.29l-2.85.3c-.08,0-.11,0-.1.13l-.09,4c0,.08,0,.12.11.11l2.89-.31A2.53,2.53,0,0,0,884.62,345.93Zm-4.55-9.79a.16.16,0,0,0,0,.09L880,340c0,.08,0,.12.11.11l2.7-.29a2.75,2.75,0,0,0,1.68-.69,2,2,0,0,0,.63-1.52v-.29a1.59,1.59,0,0,0-.67-1.2,2.34,2.34,0,0,0-1.58-.29l-2.7.29A.12.12,0,0,0,880.07,336.14Z"/>
    <path class="cls-111"
          d="M901.27,342.36c0,.2-.13.31-.31.32l-7.11.75a.11.11,0,0,0-.11.13,4.77,4.77,0,0,0,.24.94,2.16,2.16,0,0,0,2.42,1.09,3.3,3.3,0,0,0,2.36-1.5c.11-.19.23-.21.35-.08l1.65,1.53a.24.24,0,0,1,.09.18.27.27,0,0,1-.07.22,6,6,0,0,1-2,1.73,6.86,6.86,0,0,1-2.63.82,5.4,5.4,0,0,1-3.33-.58,4.41,4.41,0,0,1-1.93-2.41,6.4,6.4,0,0,1-.37-1.67,9.48,9.48,0,0,1,0-1.22,7.24,7.24,0,0,1,.37-2.58,6.22,6.22,0,0,1,1.91-2.91,5.72,5.72,0,0,1,3.16-1.34,4.45,4.45,0,0,1,3.66,1,5.5,5.5,0,0,1,1.62,3.54A14.58,14.58,0,0,1,901.27,342.36Zm-7.32-2a7.27,7.27,0,0,0-.18.79c0,.07.05.11.11.1l4-.42a.1.1,0,0,0,.11-.13,5.22,5.22,0,0,0-.12-.66,1.82,1.82,0,0,0-.69-1,1.87,1.87,0,0,0-1.27-.26A2.14,2.14,0,0,0,894,340.33Z"/>
    <path class="cls-111"
          d="M913.84,341a.33.33,0,0,1-.3.32l-7.12.75c-.08,0-.11.05-.1.13a3.94,3.94,0,0,0,.24.93,2.12,2.12,0,0,0,2.41,1.09,3.27,3.27,0,0,0,2.37-1.49c.1-.19.22-.22.35-.09l1.64,1.53a.33.33,0,0,1,.1.18.34.34,0,0,1-.08.23,5.86,5.86,0,0,1-2,1.73,6.75,6.75,0,0,1-2.63.82,5.34,5.34,0,0,1-3.33-.59,4.42,4.42,0,0,1-1.93-2.41,6.35,6.35,0,0,1-.36-1.66,11.73,11.73,0,0,1-.06-1.22,7.24,7.24,0,0,1,.37-2.58,6.14,6.14,0,0,1,1.92-2.91,5.59,5.59,0,0,1,3.15-1.34,4.43,4.43,0,0,1,3.66,1,5.52,5.52,0,0,1,1.62,3.55A13.17,13.17,0,0,1,913.84,341Zm-7.31-2a4.58,4.58,0,0,0-.18.79c0,.08,0,.12.1.11l4-.42c.08,0,.11-.05.1-.13s-.06-.41-.11-.66a1.68,1.68,0,0,0-2-1.3A2.14,2.14,0,0,0,906.53,339Z"/>
    <path class="cls-111"
          d="M930.91,329a4.21,4.21,0,0,1,1.56,3q0,.24,0,.81a5.8,5.8,0,0,1-.7,2.74,5.38,5.38,0,0,1-1.87,2,6.16,6.16,0,0,1-2.73.93l-3.28.34c-.06,0-.1,0-.13.14l-.09,6.12a.47.47,0,0,1-.09.22.27.27,0,0,1-.19.1l-2.68.28c-.18,0-.27-.07-.29-.26l.3-16.27a.25.25,0,0,1,.07-.21.35.35,0,0,1,.21-.1l6.47-.68A4.57,4.57,0,0,1,930.91,329Zm-2.2,5.87a2.55,2.55,0,0,0,.56-2,1.88,1.88,0,0,0-.72-1.38,2.1,2.1,0,0,0-1.57-.37l-2.92.3c-.07,0-.11.06-.13.14l-.06,4.42c0,.08,0,.12.1.11l2.92-.31A2.61,2.61,0,0,0,928.71,334.88Z"/>
    <path class="cls-111"
          d="M941.51,331.36c.13.05.18.17.13.35l-.52,2.79c0,.19-.14.26-.34.2a2.37,2.37,0,0,0-.82,0,3,3,0,0,0-.49.1,2.52,2.52,0,0,0-1.42.8,2.2,2.2,0,0,0-.59,1.54l-.12,6.57a.4.4,0,0,1-.09.21.27.27,0,0,1-.19.1l-2.68.29a.27.27,0,0,1-.2-.07.19.19,0,0,1-.07-.19l.2-11.78a.39.39,0,0,1,.08-.21.31.31,0,0,1,.2-.11l2.68-.28a.25.25,0,0,1,.2.07.21.21,0,0,1,.06.19v.91a.07.07,0,0,0,0,.1s.06,0,.09,0a3.25,3.25,0,0,1,2.53-1.7A2.14,2.14,0,0,1,941.51,331.36Z"/>
    <path class="cls-111"
          d="M944.53,342.34a4.5,4.5,0,0,1-1.84-2.68,7.65,7.65,0,0,1-.22-1.23,11.71,11.71,0,0,1-.06-1.19,9.37,9.37,0,0,1,.38-2.58,6.23,6.23,0,0,1,2-3,6.1,6.1,0,0,1,3.32-1.36,4.83,4.83,0,0,1,3.21.66,4.53,4.53,0,0,1,1.83,2.58,6.77,6.77,0,0,1,.29,1.45,7.15,7.15,0,0,1,0,1,9.76,9.76,0,0,1-.36,2.46,6.31,6.31,0,0,1-1.93,3.14,5.85,5.85,0,0,1-3.33,1.42A4.81,4.81,0,0,1,944.53,342.34Zm4.64-2.81a3.46,3.46,0,0,0,.8-1.41,7.2,7.2,0,0,0,.2-1.7,7.37,7.37,0,0,0,0-1.07,2.67,2.67,0,0,0-.68-1.66,1.73,1.73,0,0,0-1.49-.46,2.14,2.14,0,0,0-1.29.59,3.09,3.09,0,0,0-.78,1.35,5.83,5.83,0,0,0-.2,1.73,9,9,0,0,0,0,1.17,2.57,2.57,0,0,0,.67,1.6,1.69,1.69,0,0,0,1.47.47A2.06,2.06,0,0,0,949.17,339.53Z"/>
    <path class="cls-111"
          d="M962,331.67a.27.27,0,0,1-.19.1l-2.2.23c-.07,0-.11.06-.13.14l-.09,5.09a2.56,2.56,0,0,0,0,.38,1,1,0,0,0,1.27,1.05l.75-.08a.26.26,0,0,1,.21.06.21.21,0,0,1,.09.19l0,2.29a.34.34,0,0,1-.28.34c-.63.1-1.09.16-1.39.19a5.12,5.12,0,0,1-2.68-.25,2.12,2.12,0,0,1-1.07-1.87,4.92,4.92,0,0,1,0-.62l.11-6.44c0-.08,0-.12-.1-.11l-1.31.14a.24.24,0,0,1-.27-.26l0-2.14a.25.25,0,0,1,.08-.21.27.27,0,0,1,.2-.11l1.31-.14c.08,0,.11-.05.1-.13l.06-2.86a.4.4,0,0,1,.09-.21.24.24,0,0,1,.19-.1l2.59-.28a.23.23,0,0,1,.19.07.19.19,0,0,1,.07.19l-.06,2.86a.11.11,0,0,0,.13.11l2.21-.23a.23.23,0,0,1,.2.06.24.24,0,0,1,.07.2l0,2.14A.4.4,0,0,1,962,331.67Z"/>
    <path class="cls-111"
          d="M965.6,340.12a4.47,4.47,0,0,1-1.84-2.68,7.4,7.4,0,0,1-.23-1.22,9.63,9.63,0,0,1,0-1.2,9,9,0,0,1,.38-2.58,6.16,6.16,0,0,1,2-3,6,6,0,0,1,3.31-1.35,4.74,4.74,0,0,1,3.21.65,4.44,4.44,0,0,1,1.83,2.58,7.37,7.37,0,0,1,.3,1.46,7,7,0,0,1,0,1,9.78,9.78,0,0,1-.37,2.46,6.36,6.36,0,0,1-1.92,3.15,5.84,5.84,0,0,1-3.33,1.41A4.8,4.8,0,0,1,965.6,340.12Zm4.63-2.81a3.31,3.31,0,0,0,.8-1.4,6.83,6.83,0,0,0,.21-1.7,9.22,9.22,0,0,0,0-1.08,2.67,2.67,0,0,0-.68-1.65A1.71,1.71,0,0,0,969,331a2.09,2.09,0,0,0-1.29.59A2.91,2.91,0,0,0,967,333a5.83,5.83,0,0,0-.21,1.73,11.17,11.17,0,0,0,.06,1.17,2.56,2.56,0,0,0,.67,1.61,1.72,1.72,0,0,0,1.46.47A2.07,2.07,0,0,0,970.23,337.31Z"/>
    <path class="cls-111"
          d="M978.52,338.86a4.45,4.45,0,0,1-1.89-2.44,7.1,7.1,0,0,1-.3-1.43c0-.27,0-.72,0-1.36a9.7,9.7,0,0,1,.44-2.83,6,6,0,0,1,2-2.78,6.15,6.15,0,0,1,3.2-1.27,5.1,5.1,0,0,1,3.22.62,3.88,3.88,0,0,1,1.81,2.23,3.25,3.25,0,0,1,.18.85.26.26,0,0,1-.06.21.43.43,0,0,1-.19.13l-2.64.68h0a.22.22,0,0,1-.27-.21l-.06-.38a1.59,1.59,0,0,0-.7-1,2,2,0,0,0-1.3-.27,2.17,2.17,0,0,0-1.25.52,2.3,2.3,0,0,0-.73,1.13,6.2,6.2,0,0,0-.3,2,9.18,9.18,0,0,0,.05,1.09,3.91,3.91,0,0,0,.16.85,1.86,1.86,0,0,0,.68,1.06,1.83,1.83,0,0,0,1.26.27,2.3,2.3,0,0,0,1.27-.53,2.33,2.33,0,0,0,.75-1.17.37.37,0,0,0,0-.15.08.08,0,0,0,0-.07.28.28,0,0,1,.33-.27l2.63.15a.24.24,0,0,1,.25.29,3.17,3.17,0,0,1-.17.69,5.3,5.3,0,0,1-1.92,2.72,6.4,6.4,0,0,1-3.22,1.25A4.85,4.85,0,0,1,978.52,338.86Z"/>
    <path class="cls-111"
          d="M990.63,337.49a4.45,4.45,0,0,1-1.84-2.69,6.33,6.33,0,0,1-.23-1.22,9.4,9.4,0,0,1,0-1.19,9,9,0,0,1,.37-2.58,6.2,6.2,0,0,1,2-3,6.07,6.07,0,0,1,3.31-1.36,4.83,4.83,0,0,1,3.21.66,4.44,4.44,0,0,1,1.83,2.58,7.27,7.27,0,0,1,.3,1.45,7.13,7.13,0,0,1,0,1,9.76,9.76,0,0,1-.36,2.46,6.38,6.38,0,0,1-1.92,3.14,5.91,5.91,0,0,1-3.33,1.42A4.85,4.85,0,0,1,990.63,337.49Zm4.63-2.82a3.25,3.25,0,0,0,.8-1.4,7.26,7.26,0,0,0,.21-1.7,9,9,0,0,0,0-1.07,2.67,2.67,0,0,0-.67-1.66,1.75,1.75,0,0,0-1.49-.47,2.16,2.16,0,0,0-1.3.6,3.09,3.09,0,0,0-.78,1.35,5.81,5.81,0,0,0-.2,1.72,11.21,11.21,0,0,0,.05,1.17,2.6,2.6,0,0,0,.68,1.61,1.69,1.69,0,0,0,1.46.47A2,2,0,0,0,995.26,334.67Z"/>
    <path class="cls-111"
          d="M1001.6,337.11a.19.19,0,0,1-.07-.19l.28-16.25a.27.27,0,0,1,.07-.21.3.3,0,0,1,.21-.1l2.68-.29a.29.29,0,0,1,.2.07.25.25,0,0,1,.07.19l-.28,16.25a.4.4,0,0,1-.09.21.24.24,0,0,1-.19.1l-2.68.29A.24.24,0,0,1,1001.6,337.11Z"/>
    <path class="cls-1"
          d="M840.89,359.1c1.61.88,3.46,2,5.76,3.56a7.08,7.08,0,0,0,7.27.44c3.5-1.71,6.06-5.79,6.39-10.15.36-5-1.83-9.29-6.82-13.12a27.4,27.4,0,0,1-1.7,6.52A25.8,25.8,0,0,1,840.89,359.1Z"/>
    <path class="cls-1"
          d="M838.4,333.07a18.23,18.23,0,0,0-9.13.82,11.67,11.67,0,0,0-6.82,7.07c-1.33,3.55-1.19,6.71.43,9.39a13.13,13.13,0,0,0,6.55,5.12C838.44,347.7,838.46,335.17,838.4,333.07Z"/>
    <path class="cls-109" d="M853.16,337.38l.14.09A.42.42,0,0,0,853.16,337.38Z"/>
    <path class="cls-109"
          d="M847.27,334c-6.44-3.18-13.42-3.83-18.66-1.75a13.56,13.56,0,0,0-7.84,8.1c-1.51,4-1.31,7.81.58,10.94,2.66,4.41,7.9,6.52,11.92,7,3.45.44,6.12,1.69,12.39,5.85a8.74,8.74,0,0,0,5.85,1.5,9.36,9.36,0,0,0,3.2-.94c4-2,7-6.66,7.38-11.63C862.66,345.31,858,339.24,847.27,334Zm-17.84,21.49a13.12,13.12,0,0,1-6.55-5.12c-1.62-2.68-1.76-5.84-.43-9.39a11.67,11.67,0,0,1,6.82-7.07,18.23,18.23,0,0,1,9.13-.82C838.46,335.17,838.44,347.7,829.43,355.47Zm11.46,3.63a25.8,25.8,0,0,0,10.9-12.75,27.4,27.4,0,0,0,1.7-6.52,18.06,18.06,0,0,1,5.73,6.77c-.61,1.83-4,11-12.67,14.66l-1.35.45"/>
    <path class="cls-108"
          d="M855.41,320.15l-5.68.59a9.53,9.53,0,0,0-8.48,10.48l1,9.47h0l15.16-1.59a9.53,9.53,0,0,0,7.69-5.6,9.43,9.43,0,0,0,.79-4.88h0A9.56,9.56,0,0,0,855.41,320.15Z"/>
    <path class="cls-109"
          d="M857.5,340l-16,1.69-1.09-10.37a10.45,10.45,0,0,1,9.27-11.46l5.69-.59A10.42,10.42,0,0,1,857.5,340ZM843,339.71l14.27-1.5a8.63,8.63,0,1,0-1.8-17.17l-5.69.6a8.63,8.63,0,0,0-7.68,9.48Z"/>
    <path class="cls-112"
          d="M1004.23,361.3l42.74,406a26.94,26.94,0,0,1-23.9,29.52l-795.88,83.8a26.93,26.93,0,0,1-29.52-23.9L153,432.74a26.94,26.94,0,0,1,23.9-29.52l608.41-64.06"/>
    <circle class="cls-112" cx="790.73" cy="338.65" r="5.33"/>
    <circle class="cls-112" cx="1003.67" cy="356" r="5.33"/>
    <text class="cls-113" transform="translate(198.18 479.86) rotate(-6.01)">
        <tspan xml:space="preserve">ID: </tspan>
        <tspan xml:space="preserve" id="profile_id">1111</tspan>
        <tspan x="0" y="150" id="profile_description">aaa</tspan>
        <tspan x="0" y="340" xml:space="preserve">followers</tspan>
        <tspan x="150" y="340" xml:space="preserve" id="profile_followers">1</tspan>
        <tspan x="250" y="340" xml:space="preserve">following</tspan>
        <tspan x="400" y="340" xml:space="preserve" id="profile_following">2</tspan>
    </text>
    <path class="cls-114"
          d="M995.39,573.33a15,15,0,0,0-6.92-5.63,89,89,0,0,0-9.26-3.37q-5-1.65-10-3.09-7.31-2.1-14.7-3.8,7.62-3.75,15.08-7.87c3.07-1.69,6.13-3.42,9.14-5.23a37.41,37.41,0,0,0,6.94-5.11,14.68,14.68,0,0,0,4.19-6.67c.81-3.14,0-6.28-1.22-9.19-2.24-5.19-5.49-10.52-10.21-13.79a13.23,13.23,0,0,0-7.23-2.49,15.13,15.13,0,0,0-8.46,2.85,92.5,92.5,0,0,0-7.79,6q-4,3.33-7.94,6.81-6.48,5.78-12.58,12v-.45q.09-10.8-.46-21.58c-.18-3.51-.39-7-.7-10.51a37.69,37.69,0,0,0-1.55-8.49,14.75,14.75,0,0,0-4.16-6.68c-2.47-2.11-5.64-2.79-8.8-2.93-5.65-.26-11.86.32-16.87,3.14a13.18,13.18,0,0,0-5.41,5.41,15.14,15.14,0,0,0-1.14,8.84,92.82,92.82,0,0,0,2,9.65q1.23,5.08,2.64,10.13,3.32,11.75,7.66,23.17l-3.55-1.73Q894.38,538,884.37,534c-3.25-1.32-6.52-2.62-9.81-3.82a37.1,37.1,0,0,0-8.35-2.19,14.71,14.71,0,0,0-7.82.93c-2.95,1.35-4.9,3.92-6.38,6.73-2.63,5-4.73,10.88-4.31,16.61a13.34,13.34,0,0,0,2.61,7.19,15.09,15.09,0,0,0,7.53,4.78,92.75,92.75,0,0,0,9.59,2.27q5.13,1,10.29,1.9,7.49,1.25,15,2.06-7.14,4.62-14,9.57c-2.86,2-5.7,4.12-8.47,6.26a37,37,0,0,0-6.3,5.89,14.64,14.64,0,0,0-3.38,7.12c-.44,3.21.69,6.24,2.28,9,2.83,4.89,6.68,9.81,11.75,12.5a13.2,13.2,0,0,0,7.47,1.64,15.15,15.15,0,0,0,8.07-3.82,91.65,91.65,0,0,0,7-6.91q3.63-3.78,7.1-7.69,5-5.67,9.76-11.62c.07,5.67.26,11.33.6,17,.21,3.51.44,7,.78,10.51a37,37,0,0,0,1.62,8.47,14.7,14.7,0,0,0,4.21,6.65c2.49,2.09,5.66,2.74,8.83,2.86,5.64.22,11.85-.42,16.84-3.27a13.15,13.15,0,0,0,5.36-5.45,15.11,15.11,0,0,0,1.07-8.86,91.31,91.31,0,0,0-2.09-9.63q-1.26-5.07-2.71-10.1-2.12-7.29-4.63-14.46,7.25,4.45,14.7,8.56c3.07,1.69,6.16,3.36,9.3,4.94a37.23,37.23,0,0,0,8,3.15,14.71,14.71,0,0,0,7.87,0c3.09-1,5.33-3.32,7.13-5.94,3.19-4.66,6-10.25,6.21-16A13.17,13.17,0,0,0,995.39,573.33Z"/>
    <path class="cls-114"
          d="M923,553.37a1.84,1.84,0,0,1,.09.56c.38-4.06,2-7.34,3.82-10.92a15.9,15.9,0,0,0,1.94-5.19c.23-1.69-.2-5.7-2.66-5.41-2.78.32-4.5,5.22-4.92,7.48a16.7,16.7,0,0,0-.23,1.71,13.07,13.07,0,0,0-.76-1.55c-1.12-2-4.33-6.08-7.07-5.49-2.42.52-1.53,4.46-.77,6a15.93,15.93,0,0,0,3.51,4.29c2.92,2.78,5.47,5.38,7.14,9.1A1.42,1.42,0,0,1,923,553.37Z"/>
    <path class="cls-114"
          d="M943.71,555.06a15.87,15.87,0,0,0,5.47-.92c1.57-.65,4.83-3,3.35-5-1.68-2.25-6.78-1.28-8.95-.51a14.62,14.62,0,0,0-1.58.66,15.42,15.42,0,0,0,1-1.43c1.17-2,3.09-6.8,1.21-8.88-1.67-1.83-4.63.91-5.57,2.33a16,16,0,0,0-1.94,5.19c-.95,3.92-1.92,7.43-4.3,10.74a1.48,1.48,0,0,1,.43-.36,1.46,1.46,0,0,1-.43.36C936.05,555.53,939.68,555.25,943.71,555.06Z"/>
    <path class="cls-114"
          d="M951.05,564.33a15.89,15.89,0,0,0-5.46.91c-3.87,1.15-7.39,2.07-11.46,1.67a1.39,1.39,0,0,1,.54.2,1.86,1.86,0,0,1-.54-.2c3.34,2.35,5.4,5.35,7.58,8.75a16,16,0,0,0,3.54,4.26c1.35,1,5,2.66,6,.39,1.1-2.58-2.29-6.51-4-8a15.56,15.56,0,0,0-1.38-1c.57.06,1.15.1,1.72.11,2.3,0,7.44-.74,8.29-3.41C956.61,565.61,952.75,564.43,951.05,564.33Z"/>
    <path class="cls-114"
          d="M933.84,582.38c-2.93-2.77-5.49-5.36-7.18-9.08a1.7,1.7,0,0,1,.1.56,1.58,1.58,0,0,1-.1-.56c-.36,4.07-1.93,7.36-3.77,10.94a16.09,16.09,0,0,0-1.92,5.2c-.22,1.69.23,5.7,2.69,5.4,2.78-.33,4.48-5.24,4.89-7.5a16.62,16.62,0,0,0,.21-1.71,14.74,14.74,0,0,0,.77,1.54c1.14,2,4.36,6.07,7.1,5.46,2.42-.53,1.51-4.46.74-6A15.91,15.91,0,0,0,933.84,582.38Z"/>
    <path class="cls-114"
          d="M906,572.26a16.13,16.13,0,0,0-5.46,1c-1.57.66-4.81,3-3.32,5,1.68,2.24,6.78,1.25,8.94.47a15.75,15.75,0,0,0,1.59-.67,15.57,15.57,0,0,0-.95,1.44c-1.16,2-3.06,6.81-1.17,8.88,1.67,1.82,4.62-.93,5.55-2.36a15.94,15.94,0,0,0,1.93-5.19c.93-3.93,1.88-7.44,4.25-10.77a1.53,1.53,0,0,1-.44.37,1.72,1.72,0,0,1,.44-.37C913.68,571.77,910.05,572.06,906,572.26Z"/>
    <path class="cls-114"
          d="M904.11,562.09c3.86-1.16,7.38-2.1,11.44-1.71a1.6,1.6,0,0,1-.53-.2,1.47,1.47,0,0,1,.53.2c-3.35-2.34-5.42-5.33-7.61-8.72a16.19,16.19,0,0,0-3.56-4.25c-1.36-1-5.06-2.64-6-.35-1.09,2.58,2.32,6.49,4.08,8a17,17,0,0,0,1.37,1,16.37,16.37,0,0,0-1.72-.1c-2.3,0-7.43.76-8.27,3.44-.74,2.36,3.12,3.53,4.82,3.62A15.78,15.78,0,0,0,904.11,562.09Z"/>
    <path class="cls-115" d="M939.73,572.64a16.82,16.82,0,1,1-5-23.25A16.83,16.83,0,0,1,939.73,572.64Z"/>
    <path class="cls-111" d="M925.51,553.33a2.2,2.2,0,1,1-.66-3A2.2,2.2,0,0,1,925.51,553.33Z"/>
    <path class="cls-111" d="M928.74,569.32a2.2,2.2,0,1,1-.66-3A2.2,2.2,0,0,1,928.74,569.32Z"/>
    <path class="cls-111" d="M930.16,562.51a2.2,2.2,0,1,1-.65-3A2.19,2.19,0,0,1,930.16,562.51Z"/>
    <path class="cls-111" d="M921.54,564.68a2.19,2.19,0,1,1-.66-3A2.19,2.19,0,0,1,921.54,564.68Z"/>
    <path class="cls-111" d="M936.25,557.53a2.2,2.2,0,1,1-.65-3A2.19,2.19,0,0,1,936.25,557.53Z"/>
    <path class="cls-111" d="M939.28,567a2.19,2.19,0,1,1-.66-3A2.19,2.19,0,0,1,939.28,567Z"/>
    <path class="cls-111" d="M930.51,576.59a2.2,2.2,0,1,1-.65-3A2.19,2.19,0,0,1,930.51,576.59Z"/>
    <path class="cls-111" d="M919.61,573a2.2,2.2,0,1,1-.66-3A2.19,2.19,0,0,1,919.61,573Z"/>
    <path class="cls-111" d="M917.55,559.1a2.2,2.2,0,1,1-.65-3A2.19,2.19,0,0,1,917.55,559.1Z"/>
    <path class="cls-116"
          d="M886,619.36c-2.7-4.44-7-7.4-11.7-9.52a157.55,157.55,0,0,0-15.67-5.7q-8.4-2.77-16.9-5.22-12.33-3.55-24.85-6.42,12.9-6.36,25.49-13.31c5.2-2.87,10.38-5.79,15.46-8.85a63.07,63.07,0,0,0,11.75-8.64,24.8,24.8,0,0,0,7.08-11.28c1.37-5.31.06-10.62-2.07-15.55-3.78-8.77-9.27-17.78-17.27-23.31a22.36,22.36,0,0,0-12.22-4.22c-5.2-.08-10,2-14.3,4.83a154.29,154.29,0,0,0-13.17,10.2q-6.82,5.63-13.44,11.51-11,9.76-21.27,20.22c0-.25,0-.51,0-.76q.15-18.26-.79-36.49c-.3-5.93-.66-11.86-1.18-17.78a62.91,62.91,0,0,0-2.62-14.34,24.86,24.86,0,0,0-7-11.31c-4.18-3.56-9.52-4.71-14.88-4.95-9.55-.44-20,.55-28.53,5.31a22.36,22.36,0,0,0-9.14,9.14c-2.36,4.64-2.58,9.89-1.93,15a154.35,154.35,0,0,0,3.41,16.31q2.07,8.61,4.46,17.12,5.58,19.88,12.94,39.19c-2-1-4-2-6-2.93q-16.47-7.87-33.39-14.76c-5.49-2.23-11-4.43-16.59-6.46a62.7,62.7,0,0,0-14.11-3.7,24.76,24.76,0,0,0-13.22,1.58c-5,2.27-8.3,6.63-10.8,11.38-4.44,8.46-8,18.39-7.28,28.08a22.3,22.3,0,0,0,4.41,12.16c3.2,4.1,7.85,6.53,12.73,8.09a155.29,155.29,0,0,0,16.22,3.83q8.67,1.77,17.4,3.22,12.66,2.09,25.43,3.47-12.06,7.81-23.77,16.19c-4.82,3.46-9.62,7-14.32,10.59a62.84,62.84,0,0,0-10.65,10,24.8,24.8,0,0,0-5.72,12c-.74,5.44,1.18,10.56,3.87,15.2,4.78,8.27,11.29,16.58,19.87,21.14a22.38,22.38,0,0,0,12.63,2.76c5.18-.53,9.72-3.17,13.64-6.46a152.36,152.36,0,0,0,11.89-11.68q6.14-6.37,12-13,8.54-9.59,16.51-19.66.18,14.38,1,28.74c.35,5.93.75,11.86,1.32,17.77a63.36,63.36,0,0,0,2.73,14.32,24.82,24.82,0,0,0,7.13,11.25c4.21,3.53,9.56,4.64,14.92,4.84,9.55.36,20-.71,28.48-5.54a22.24,22.24,0,0,0,9.07-9.21c2.32-4.66,2.51-9.9,1.81-15a154.48,154.48,0,0,0-3.53-16.29q-2.13-8.58-4.59-17.08-3.57-12.33-7.83-24.45,12.26,7.51,24.85,14.47c5.2,2.86,10.43,5.69,15.73,8.36a63.32,63.32,0,0,0,13.58,5.32,24.79,24.79,0,0,0,13.32,0c5.22-1.67,9-5.61,12.05-10,5.4-7.88,10.09-17.33,10.51-27A22.41,22.41,0,0,0,886,619.36Z"/>
    <path class="cls-114"
          d="M763.56,585.62a2.49,2.49,0,0,1,.15.94c.65-6.87,3.32-12.42,6.46-18.47a27,27,0,0,0,3.29-8.78c.38-2.85-.34-9.63-4.5-9.15-4.71.55-7.62,8.84-8.33,12.66a25.48,25.48,0,0,0-.37,2.88,28.73,28.73,0,0,0-1.29-2.61c-1.91-3.38-7.33-10.29-12-9.29-4.09.89-2.58,7.54-1.3,10.12a27.07,27.07,0,0,0,5.94,7.25c4.93,4.71,9.25,9.1,12.07,15.39A2.68,2.68,0,0,1,763.56,585.62Z"/>
    <path class="cls-114"
          d="M798.61,588.48a27.38,27.38,0,0,0,9.24-1.56c2.66-1.1,8.17-5.13,5.66-8.48-2.83-3.81-11.46-2.17-15.12-.87a28.84,28.84,0,0,0-2.69,1.13,28.49,28.49,0,0,0,1.62-2.43c2-3.34,5.23-11.5,2-15-2.82-3.1-7.82,1.54-9.41,3.94a27,27,0,0,0-3.29,8.78c-1.61,6.63-3.24,12.57-7.28,18.17a2.56,2.56,0,0,1,.75-.61,2.79,2.79,0,0,1-.75.61C785.65,589.26,791.79,588.79,798.61,588.48Z"/>
    <path class="cls-114"
          d="M811,604.14a27.07,27.07,0,0,0-9.25,1.55c-6.54,1.93-12.49,3.5-19.36,2.81a2.83,2.83,0,0,1,.9.34,2.53,2.53,0,0,1-.9-.34c5.64,4,9.13,9.06,12.81,14.8a27,27,0,0,0,6,7.21c2.29,1.75,8.53,4.5,10.18.65,1.87-4.36-3.87-11-6.83-13.52-.75-.63-1.52-1.21-2.32-1.76a28,28,0,0,0,2.9.19c3.89,0,12.58-1.25,14-5.77C820.41,606.31,813.89,604.31,811,604.14Z"/>
    <path class="cls-114"
          d="M781.91,634.67c-4.95-4.69-9.29-9.07-12.14-15.35a2.5,2.5,0,0,1,.16.95,2.77,2.77,0,0,1-.16-.95c-.61,6.87-3.26,12.44-6.38,18.5a27.1,27.1,0,0,0-3.24,8.79c-.37,2.86.38,9.64,4.54,9.14,4.71-.57,7.57-8.87,8.27-12.69a25.92,25.92,0,0,0,.36-2.89,28.65,28.65,0,0,0,1.3,2.6c1.92,3.38,7.38,10.26,12,9.24,4.09-.9,2.55-7.55,1.26-10.12A26.78,26.78,0,0,0,781.91,634.67Z"/>
    <path class="cls-114"
          d="M734.87,617.56a27,27,0,0,0-9.23,1.6c-2.66,1.11-8.15,5.16-5.63,8.51,2.85,3.79,11.47,2.11,15.13.8a27.63,27.63,0,0,0,2.68-1.14,28.39,28.39,0,0,0-1.61,2.43c-2,3.35-5.17,11.52-2,15,2.83,3.08,7.81-1.58,9.39-4a27.27,27.27,0,0,0,3.26-8.79c1.57-6.64,3.18-12.59,7.19-18.2a2.64,2.64,0,0,1-.74.61,2.59,2.59,0,0,1,.74-.61C747.82,616.72,741.68,617.22,734.87,617.56Z"/>
    <path class="cls-114"
          d="M731.63,600.36c6.53-2,12.48-3.55,19.35-2.9a2.49,2.49,0,0,1-.9-.33,2.74,2.74,0,0,1,.9.33c-5.66-4-9.17-9-12.88-14.73a26.85,26.85,0,0,0-6-7.19c-2.29-1.74-8.55-4.46-10.18-.61-1.85,4.37,3.92,11,6.89,13.49a27.77,27.77,0,0,0,2.33,1.75,28.06,28.06,0,0,0-2.91-.17c-3.88,0-12.56,1.3-14,5.82-1.25,4,5.28,6,8.15,6.13A26.77,26.77,0,0,0,731.63,600.36Z"/>
    <path class="cls-115" d="M791.87,618.19a28.44,28.44,0,1,1-8.52-39.31A28.43,28.43,0,0,1,791.87,618.19Z"/>
    <path class="cls-111" d="M767.82,585.54a3.7,3.7,0,1,1-1.11-5.13A3.69,3.69,0,0,1,767.82,585.54Z"/>
    <path class="cls-111" d="M773.28,612.58a3.71,3.71,0,1,1-1.11-5.13A3.71,3.71,0,0,1,773.28,612.58Z"/>
    <path class="cls-111" d="M775.69,601.06a3.71,3.71,0,1,1-1.11-5.13A3.71,3.71,0,0,1,775.69,601.06Z"/>
    <path class="cls-111" d="M761.11,604.74a3.71,3.71,0,1,1-1.11-5.13A3.71,3.71,0,0,1,761.11,604.74Z"/>
    <path class="cls-111" d="M786,592.65a3.71,3.71,0,1,1-1.11-5.13A3.71,3.71,0,0,1,786,592.65Z"/>
    <path class="cls-111" d="M791.11,608.7a3.71,3.71,0,1,1-1.11-5.13A3.71,3.71,0,0,1,791.11,608.7Z"/>
    <path class="cls-111" d="M776.29,624.87a3.71,3.71,0,1,1-1.11-5.13A3.71,3.71,0,0,1,776.29,624.87Z"/>
    <path class="cls-111" d="M757.85,618.75a3.71,3.71,0,1,1-1.12-5.13A3.71,3.71,0,0,1,757.85,618.75Z"/>
    <path class="cls-111" d="M754.37,595.3a3.71,3.71,0,1,1-1.11-5.13A3.71,3.71,0,0,1,754.37,595.3Z"/>
    <path class="cls-114"
          d="M921.07,704.67a28.64,28.64,0,0,0-3.77-16.8c-7.33-12.79-22.55-17.85-34-11.29s-14.78,22.25-7.45,35a28.59,28.59,0,0,0,12.6,11.75,28.35,28.35,0,0,0,1.81,24.27c7.87,13.73,25.62,18.33,39.66,10.29s19-25.7,11.18-39.42A28.36,28.36,0,0,0,921.07,704.67Z"/>
    <path class="cls-117" d="M944,729.51c-32.32,4.08-45.74,26.21-45.74,26.21L899,757a29.6,29.6,0,0,0,45.74-26.21Z"/>
    <path class="cls-117"
          d="M888.11,741.28s14.77-26.58,51.63-27.18l-16.45-20.55s-28.72,2.7-44.35,25C869.06,732.62,888.11,741.28,888.11,741.28Z"/>
    <path class="cls-114"
          d="M967.42,684.09c-8.54,9.78-50.61,26.11-52.55,24.42-2.1-1.83,8.6-45.58,17.15-55.36a23.51,23.51,0,1,1,35.4,30.94Z"/>
    <path class="cls-114"
          d="M961.57,715.17c-10.09,2.88-45.81-4.48-46.38-6.48-.62-2.16,25.83-27.16,35.92-30.05a19,19,0,0,1,10.46,36.53Z"/>
    <path class="cls-114"
          d="M847.34,752.91c12.76-2.43,48.12-30.47,47.64-33-.52-2.74-43.68-15.62-56.43-13.19a23.51,23.51,0,1,0,8.79,46.19Z"/>
    <path class="cls-114"
          d="M877.11,763.57c7.6-7.24,19.3-41.79,17.86-43.29s-36.49,8.56-44.08,15.8a19,19,0,0,0,26.22,27.49Z"/>
    <polygon class="cls-114" points="933.03 756.14 934.28 765.54 926.81 759.71 933.03 756.14"/>
    <path class="cls-114" d="M892.32,673.79s-1.63-3.35.24-15.53"/>
    <path class="cls-114" d="M875.66,684s-8.45-6-14.44-7.74"/>
    <rect class="cls-118" x="578.16" y="798.3" width="81.25" height="81.25" rx="40.63"
          transform="translate(-85.9 70.74) rotate(-6.12)"/>
    <g id="page1">
        <g id="Cutcopy">
            <g id="blue-horizontalcopy">
                <g id="group-4copy">
                    <g id="shapecombination">
                        <path class="cls-119"
                              d="M623.84,833.57l-.5-4.7-13.89,1.49-.31-2.83,16.72-1.79.3,2.82.6,5.58-7.1,9.52,8-.86.3,2.82-11.68,1.25-.3-2.82Z"/>
                    </g>
                    <path class="cls-120"
                          d="M611,843.43l7.19-9.33-8.23.89-.3-2.83,12-1.28.3,2.82-8,10.62.49,4.58,13.76-1.47.31,2.82-14,1.5-2.56.28Z"/>
                    <g id="path">
                        <polygon class="cls-121"
                                 points="621.76 866.66 596.27 855.36 593.29 827.64 615.81 811.2 641.3 822.49 642.09 829.84 637.32 830.35 636.82 825.75 616.4 816.7 598.36 829.88 600.74 852.1 621.16 861.15 639.21 847.98 638.72 843.46 643.49 842.95 644.27 850.22 621.76 866.66"/>
                    </g>
                </g>
            </g>
        </g>
    </g>
</svg>