<svg id="图层_1" data-name="图层 1" xmlns="http://www.w3.org/2000/svg" viewBox="0 0 429.6 526.1"><defs><style>.cls-1{fill:none;}.cls-1,.cls-2,.cls-3{stroke:#ffce00;stroke-linecap:round;stroke-linejoin:round;stroke-width:2px;}.cls-2{fill:#602c00;}.cls-3{fill:#ffce00;}</style></defs><title>图1</title><polygon class="cls-1" points="141.32 436.32 141.32 465.89 166.93 480.68 192.54 465.89 192.54 436.32 166.93 421.54 141.32 436.32"/><polygon class="cls-1" points="192.54 436.32 192.54 465.89 218.15 480.68 243.76 465.89 243.76 436.32 218.15 421.54 192.54 436.32"/><polygon class="cls-1" points="166.93 392.11 166.93 421.68 192.54 436.47 218.15 421.68 218.15 392.11 192.54 377.32 166.93 392.11"/><polygon class="cls-1" points="166.93 480.75 166.93 510.32 192.54 525.1 218.15 510.32 218.15 480.75 192.54 465.96 166.93 480.75"/><polygon class="cls-1" points="38.78 275.93 38.78 305.5 64.39 320.28 90 305.5 90 275.93 64.39 261.14 38.78 275.93"/><polygon class="cls-1" points="90 275.93 90 305.5 115.61 320.28 141.22 305.5 141.22 275.93 115.61 261.14 90 275.93"/><polygon class="cls-1" points="64.39 231.71 64.39 261.29 90 276.07 115.61 261.29 115.61 231.71 90 216.93 64.39 231.71"/><polygon class="cls-1" points="115.61 320.35 115.61 349.92 141.22 364.71 166.83 349.92 166.83 320.35 141.22 305.56 115.61 320.35"/><circle class="cls-2" cx="207.46" cy="385.37" r="6.33"/><path class="cls-2" d="M238.11,352.49c11.13,7.27,20,41.58,12.24,47s-35.78-14.75-40.23-27.26c-3.61-10.15,9.35-6.68,14-9.93C228.85,359,229.19,346.66,238.11,352.49Z" transform="translate(-46.7 -19.2)"/><path class="cls-2" d="M297.76,371.29c-2.71,13-31.44,33.74-39.34,28.53s.71-38.7,10.73-47.4c8.14-7.06,9.62,6.27,14.34,9.38S299.94,360.85,297.76,371.29Z" transform="translate(-46.7 -19.2)"/><path class="cls-2" d="M296.23,439.69c-13.29-.15-39.18-24.34-35.59-33.1s38.1-6.77,48.58,1.39c8.49,6.61-4.3,10.65-6.45,15.88C300.56,429.26,306.89,439.81,296.23,439.69Z" transform="translate(-46.7 -19.2)"/><path class="cls-2" d="M273.26,455.91c4.3-12.58-9.82-45.07-19.28-44.62S234.85,444.93,239,457.54c3.39,10.22,11.48-.49,17.12-.76C262,456.5,269.81,466,273.26,455.91Z" transform="translate(-46.7 -19.2)"/><path class="cls-2" d="M207.4,433.38c13.1,2.27,43-16.79,41-26.05s-36.23-13.61-48-7.5c-9.56,4.95,2.28,11.25,3.44,16.78C205.05,422.33,196.9,431.55,207.4,433.38Z" transform="translate(-46.7 -19.2)"/><line class="cls-2" x1="202.94" y1="378.97" x2="192.54" y2="364.24"/><line class="cls-2" x1="211.55" y1="380.19" x2="222.01" y2="365.51"/><line class="cls-2" x1="213.34" y1="387.72" x2="230.23" y2="394.03"/><line class="cls-2" x1="206.7" y1="392.41" x2="207" y2="410.43"/><line class="cls-2" x1="201.22" y1="387.49" x2="183.88" y2="392.43"/><circle class="cls-2" cx="125.01" cy="146.56" r="3.69"/><path class="cls-2" d="M181.58,135.55c2.86,7.2-4.47,26.52-10,26.52s-12.08-19.06-10-26.52c1.69-6.05,6.7,0,10,0S179.29,129.77,181.58,135.55Z" transform="translate(-46.7 -19.2)"/><path class="cls-2" d="M203.67,164.56c-5.67,5.29-26.32,5.5-28.33.36s13.35-18.19,21-19c6.25-.63,2.47,6.22,3.67,9.29S208.22,160.32,203.67,164.56Z" transform="translate(-46.7 -19.2)"/><path class="cls-2" d="M179.94,196.63c-6.28-4.54-10.48-24.77-5.83-27.73s20.43,9.58,22.68,17c1.82,6-5.63,3.63-8.41,5.4S185,200.27,179.94,196.63Z" transform="translate(-46.7 -19.2)"/><path class="cls-2" d="M163.54,196.63c6.28-4.54,10.48-24.77,5.82-27.73s-20.42,9.58-22.67,17c-1.82,6,5.63,3.63,8.41,5.4S158.51,200.27,163.54,196.63Z" transform="translate(-46.7 -19.2)"/><path class="cls-2" d="M139.75,163.75c5.47,5.49,26.11,6.45,28.3,1.39s-12.67-18.66-20.34-19.72c-6.22-.85-2.7,6.13-4,9.15S135.36,159.35,139.75,163.75Z" transform="translate(-46.7 -19.2)"/><circle class="cls-2" cx="317.97" cy="418.06" r="4.73"/><path class="cls-2" d="M377.32,398.54c3.66,9.24-5.73,34-12.8,34s-15.48-24.44-12.81-34c2.17-7.75,8.58,0,12.81,0S374.39,391.13,377.32,398.54Z" transform="translate(-46.7 -19.2)"/><path class="cls-2" d="M405.64,435.73c-7.26,6.78-33.74,7-36.32.46s17.11-23.32,27-24.31c8-.8,3.17,8,4.71,11.91S411.47,430.3,405.64,435.73Z" transform="translate(-46.7 -19.2)"/><path class="cls-2" d="M375.22,476.84c-8.05-5.82-13.43-31.75-7.47-35.55s26.19,12.29,29.07,21.79c2.34,7.7-7.22,4.65-10.78,6.92S381.67,481.51,375.22,476.84Z" transform="translate(-46.7 -19.2)"/><path class="cls-2" d="M354.2,476.84c8.05-5.82,13.43-31.75,7.46-35.55s-26.18,12.29-29.06,21.79c-2.34,7.7,7.22,4.65,10.78,6.92S347.74,481.51,354.2,476.84Z" transform="translate(-46.7 -19.2)"/><path class="cls-2" d="M323.7,434.69c7,7,33.47,8.28,36.28,1.79s-16.25-23.93-26.08-25.28c-8-1.1-3.46,7.85-5.14,11.73S318.07,429.05,323.7,434.69Z" transform="translate(-46.7 -19.2)"/><polygon class="cls-1" points="274.94 82 274.94 111.57 249.33 126.36 223.72 111.57 223.72 82 249.33 67.21 274.94 82"/><polygon class="cls-1" points="249.33 37.79 249.33 67.36 223.72 82.14 198.11 67.36 198.11 37.79 223.72 23 249.33 37.79"/><polygon class="cls-1" points="300.55 126.42 300.55 156 274.94 170.78 249.33 156 249.33 126.42 274.94 111.64 300.55 126.42"/><polygon class="cls-1" points="326.16 170.91 326.16 200.48 300.55 215.26 274.94 200.48 274.94 170.91 300.55 156.12 326.16 170.91"/><polygon class="cls-1" points="377.38 170.91 377.38 200.48 351.77 215.26 326.16 200.48 326.16 170.91 351.77 156.12 377.38 170.91"/><polygon class="cls-1" points="428.6 170.91 428.6 200.48 402.99 215.26 377.38 200.48 377.38 170.91 402.99 156.12 428.6 170.91"/><polygon class="cls-1" points="402.99 215.31 402.99 244.88 377.38 259.67 351.77 244.88 351.77 215.31 377.38 200.53 402.99 215.31"/><polygon class="cls-1" points="274.94 170.91 274.94 200.48 249.33 215.26 223.72 200.48 223.72 170.91 249.33 156.12 274.94 170.91"/><polygon class="cls-1" points="249.33 126.42 249.33 156 223.72 170.78 198.11 156 198.11 126.42 223.72 111.64 249.33 126.42"/><circle class="cls-2" cx="238.76" cy="24.21" r="2.6"/><path class="cls-2" d="M292.42,22.1c2,5.09-3.15,18.71-7,18.71s-8.52-13.45-7.05-18.71c1.19-4.26,4.72,0,7.05,0S290.81,18,292.42,22.1Z" transform="translate(-46.7 -19.2)"/><path class="cls-2" d="M308,42.57c-4,3.73-18.57,3.88-20,.25S297.44,30,302.87,29.44c4.41-.44,1.75,4.39,2.59,6.56S311.22,39.58,308,42.57Z" transform="translate(-46.7 -19.2)"/><path class="cls-2" d="M291.26,65.19c-4.42-3.2-7.39-17.47-4.1-19.56s14.41,6.76,16,12c1.29,4.24-4,2.56-5.93,3.8S294.82,67.76,291.26,65.19Z" transform="translate(-46.7 -19.2)"/><path class="cls-2" d="M279.7,65.19c4.43-3.2,7.39-17.47,4.11-19.56s-14.41,6.76-16,12c-1.28,4.24,4,2.56,5.93,3.8S276.15,67.76,279.7,65.19Z" transform="translate(-46.7 -19.2)"/><path class="cls-2" d="M262.92,42c3.86,3.87,18.41,4.55,20,1s-8.94-13.17-14.35-13.91c-4.39-.61-1.9,4.32-2.83,6.45S259.82,38.89,262.92,42Z" transform="translate(-46.7 -19.2)"/><circle class="cls-2" cx="341.1" cy="245.88" r="2.6"/><path class="cls-2" d="M405.72,251.61c-1.26,5.32-13.31,13.52-16.5,11.29s.73-15.9,4.95-19.37c3.42-2.81,3.88,2.69,5.79,4S406.73,247.35,405.72,251.61Z" transform="translate(-46.7 -19.2)"/><path class="cls-2" d="M406.76,277.32c-5.42.76-17.44-7.47-16.53-11.25s15.08-5.12,19.84-2.45c3.87,2.16-1.09,4.6-1.63,6.85S411.1,276.71,406.76,277.32Z" transform="translate(-46.7 -19.2)"/><path class="cls-2" d="M380.07,286.25c-1.79-5.16,4-18.55,7.85-18.38s7.93,13.8,6.23,19c-1.38,4.21-4.72-.18-7-.28S381.51,290.4,380.07,286.25Z" transform="translate(-46.7 -19.2)"/><path class="cls-2" d="M370.59,279.63c5.47-.09,16.07-10.09,14.58-13.68s-15.68-2.72-20,.65c-3.48,2.74,1.79,4.38,2.68,6.52S366.21,279.69,370.59,279.63Z" transform="translate(-46.7 -19.2)"/><path class="cls-2" d="M370.14,251c.94,5.38,12.48,14.29,15.79,12.25s.22-15.92-3.78-19.63c-3.25-3-4,2.45-6,3.67S369.38,246.68,370.14,251Z" transform="translate(-46.7 -19.2)"/><line class="cls-2" x1="342.95" y1="243.24" x2="347.2" y2="237.16"/><line class="cls-2" x1="343.67" y1="246.74" x2="350.81" y2="248.74"/><line class="cls-2" x1="341.01" y1="248.48" x2="340.92" y2="255.9"/><line class="cls-2" x1="338.27" y1="246.57" x2="331.33" y2="249.2"/><line class="cls-2" x1="339.41" y1="243.76" x2="335.08" y2="237.74"/><circle class="cls-2" cx="48.52" cy="192.87" r="5.25"/><path class="cls-2" d="M109.26,169.09c4.07,10.25-6.36,37.73-14.21,37.73S77.86,179.7,80.83,169.09c2.41-8.61,9.53-.05,14.22-.05C99.89,169,106,160.86,109.26,169.09Z" transform="translate(-46.7 -19.2)"/><path class="cls-2" d="M140.7,210.38c-8.07,7.51-37.46,7.82-40.32.51s19-25.89,30-27c8.89-.9,3.52,8.85,5.22,13.22S147.17,204.34,140.7,210.38Z" transform="translate(-46.7 -19.2)"/><path class="cls-2" d="M106.92,256C98,249.54,92,220.76,98.64,216.54s29.07,13.65,32.26,24.19c2.6,8.55-8,5.16-12,7.68S114.09,261.19,106.92,256Z" transform="translate(-46.7 -19.2)"/><path class="cls-2" d="M83.59,256c8.94-6.47,14.91-35.25,8.29-39.47s-29.07,13.65-32.27,24.19c-2.59,8.55,8,5.16,12,7.68S76.43,261.19,83.59,256Z" transform="translate(-46.7 -19.2)"/><path class="cls-2" d="M49.74,209.22c7.78,7.81,37.15,9.18,40.27,2s-18-26.56-28.95-28.06c-8.85-1.22-3.84,8.72-5.71,13S43.49,203,49.74,209.22Z" transform="translate(-46.7 -19.2)"/><line class="cls-2" x1="48.52" y1="186.37" x2="48.52" y2="171.41"/><line class="cls-2" x1="53.77" y1="191.32" x2="67.88" y2="186.37"/><line class="cls-2" x1="51.38" y1="197.28" x2="59.8" y2="209.64"/><line class="cls-2" x1="44.64" y1="197.28" x2="36.21" y2="209.64"/><line class="cls-2" x1="43.27" y1="191.32" x2="29.15" y2="186.37"/><path class="cls-2" d="M268.66,265.52a35.46,35.46,0,0,0,6.3-20.38c0-18.26-13.24-33.06-29.58-33.06s-29.58,14.8-29.58,33.06a35.46,35.46,0,0,0,6.3,20.38,35.06,35.06,0,0,0-13,27.2c0,19.59,16.24,35.47,36.28,35.47s36.28-15.88,36.28-35.47A35.06,35.06,0,0,0,268.66,265.52Z" transform="translate(-46.7 -19.2)"/><path class="cls-3" d="M278,306.34c-37.24-15.52-65.29,0-65.29,0v1.88a36.68,36.68,0,0,0,65.3,0Z" transform="translate(-46.7 -19.2)"/><path class="cls-3" d="M210.7,284.56s32.25-19.47,72.22,2.59l-5-32.21s-32.52-14.79-63-.47C195.56,263.51,210.7,284.56,210.7,284.56Z" transform="translate(-46.7 -19.2)"/><path class="cls-2" d="M331.15,272c-15.2,5.24-70.47-3.11-71.51-6.13-1.13-3.26,37.31-43.67,52.51-48.92a29.12,29.12,0,0,1,19,55Z" transform="translate(-46.7 -19.2)"/><path class="cls-2" d="M305.72,301.73c-12.62-3.1-46.46-33-45.85-35.52.67-2.7,44.48-13.27,57.1-10.17a23.53,23.53,0,0,1-11.25,45.69Z" transform="translate(-46.7 -19.2)"/><path class="cls-2" d="M159.73,272c15.2,5.24,70.47-3.11,71.51-6.13,1.13-3.26-37.31-43.67-52.51-48.92a29.12,29.12,0,0,0-19,55Z" transform="translate(-46.7 -19.2)"/><path class="cls-2" d="M185.16,301.73c12.62-3.1,46.46-33,45.85-35.52-.67-2.7-44.48-13.27-57.1-10.17a23.53,23.53,0,1,0,11.25,45.69Z" transform="translate(-46.7 -19.2)"/><polygon class="cls-2" points="203.12 308.99 198.68 319.86 194.24 308.99 203.12 308.99"/><path class="cls-3" d="M256.79,214.63s.31-4.6,9.83-16.54" transform="translate(-46.7 -19.2)"/><path class="cls-3" d="M232.63,215.3s-5.38-11.69-10.76-17.21" transform="translate(-46.7 -19.2)"/></svg>