<?xml version="1.0" encoding="utf-8"?>
<!-- Generator: Adobe Illustrator 23.0.3, SVG Export Plug-In . SVG Version: 6.00 Build 0)  -->
<svg version="1.1" id="图层_1" xmlns="http://www.w3.org/2000/svg" xmlns:xlink="http://www.w3.org/1999/xlink" x="0px" y="0px"
	 viewBox="0 0 60 60" style="enable-background:new 0 0 60 60;" xml:space="preserve">
<style type="text/css">
	.st0{fill:none;stroke:#FFB600;stroke-width:2;stroke-linecap:round;stroke-linejoin:round;}
	.st1{fill:#FFB600;}
	.st2{fill:#FFB600;stroke:#FFB600;stroke-width:2;stroke-linecap:round;stroke-linejoin:round;}
</style>
<title>社群图标</title>
<g>
	<path class="st0" d="M44.9,17c-1.1-2.1-3.4-3.4-5.8-3.4h-3.9c-3.6,0-6.6,2.9-6.6,6.6V23"/>
	<path class="st0" d="M39.7,29.3c2.9,2.8,4.4,6,3.7,9.9c-1,5.6-6.9,9.5-11.1,6s-6-4.5-8.3-5c-4.8-1.1-10.2-5.6-6.9-12.3
		c2.8-5.5,8.8-6,14.1-4"/>
	<path class="st1" d="M43.1,34.6c0,0-3.3,8.4-11.5,10l0.6,0.5c4.2,3.5,10-0.5,11.1-6c0.3-1.5,0.2-3-0.2-4.4L43.1,34.6z"/>
	<path class="st0" d="M43.1,34.6c0,0-3.3,8.4-11.5,10"/>
	<path class="st0" d="M17.5,23c-1.4-1.7-3.7-2.4-5.8-1.9"/>
	<path class="st0" d="M20.5,21.4c0,0-1-4.7-4.6-5.6"/>
	<path class="st0" d="M21.5,39.2c8-5.3,8.3-15.9,8.3-15.9"/>
	<path class="st0" d="M38.4,29.3c-1.3,5.7-5.3,10.3-10.7,12.4"/>
	<circle class="st2" cx="22.5" cy="29.1" r="1.3"/>
	<path class="st0" d="M41.8,16.2h-3.9c-3.6,0-6.6,2.9-6.6,6.6v6.6h10.5c3.6,0,6.6-2.9,6.6-6.6l0,0C48.3,19.1,45.4,16.2,41.8,16.2z"
		/>
	<path class="st1" d="M38.4,29.3h-7.2v-5.5l-1.5-0.5c0,0-0.4,10.6-8.3,15.9c0.6,0.3,1.3,0.6,2,0.7c1,0.2,1.9,0.5,2.8,0.9
		c0.5,0.2,1,0.5,1.5,0.8C33.2,39.6,37.2,35,38.4,29.3"/>
</g>
<path class="st1" d="M30,2c15.5,0,28,12.5,28,28S45.5,58,30,58S2,45.5,2,30S14.5,2,30,2 M30,0C13.4,0,0,13.4,0,30s13.4,30,30,30
	s30-13.4,30-30S46.6,0,30,0z"/>
</svg>
