<svg xmlns="http://www.w3.org/2000/svg" viewBox="0 0 153.62 150.84"><defs><style>.cls-1{fill:none;}.cls-1,.cls-2{stroke:#fff;stroke-linecap:round;stroke-linejoin:round;stroke-width:2px;}.cls-2{fill:#d03af9;}</style></defs><g id="图层_2" data-name="图层 2"><g id="图层_1-2" data-name="图层 1"><path class="cls-1" d="M121.3,33.31a8.19,8.19,0,0,0-7.12-4.15H39.44a8.2,8.2,0,0,0-7.12,4.15L13.56,66.42a6.28,6.28,0,0,0,.58,7.06l61.1,75.61a2,2,0,0,0,1.57.75h0a2,2,0,0,0,1.57-.75l61.11-75.61a6.31,6.31,0,0,0,.58-7.06Z"/><line class="cls-1" x1="12.75" y1="69.67" x2="140.88" y2="69.67"/><path class="cls-2" d="M76.82,30.71,56,69.67l-21.35-39a6.68,6.68,0,0,1,3.92-1.5c2.26-.05,38.62,0,38.62,0l-.42,1.5,21.35,39,20.78-39a5.88,5.88,0,0,0-4.13-1.52H76.4Z"/><polygon class="cls-2" points="97.87 69.67 76.53 148.43 55.75 69.67 97.87 69.67"/><line class="cls-1" x1="76.81" y1="20.04" x2="76.81" y2="1"/><line class="cls-1" x1="139.16" y1="33.51" x2="152.62" y2="20.04"/><line class="cls-1" x1="14.46" y1="33.51" x2="1" y2="20.04"/></g></g></svg>