<svg xmlns="http://www.w3.org/2000/svg" viewBox="0 0 151.31 151.09"><defs><style>.cls-1{fill:none;}.cls-1,.cls-2{stroke:#fff;stroke-linecap:round;stroke-linejoin:round;stroke-width:2px;}.cls-2{fill:#ffb600;}</style></defs><g id="图层_2" data-name="图层 2"><g id="图层_1-2" data-name="图层 1"><path class="cls-1" d="M31.64,101.89l-7.72-20.6C21,73.48,23.89,65,30.37,62.38h0c6.48-2.59,14.17,1.68,17.1,9.49l7.72,20.6a145.14,145.14,0,0,1,5.69,14.45c2.89,9.46,1,43.17,1,43.17H21.55S5.72,118,4.37,109,1.51,48.89,1,38.49s11.25-8.42,17.28,5.35c3.77,8.61,8,21.41,8,21.41"/><path class="cls-1" d="M119.67,101.89l7.72-20.6c2.93-7.81,0-16.32-6.45-18.91h0c-6.48-2.59-14.17,1.68-17.1,9.49l-7.72,20.6a145.14,145.14,0,0,0-5.69,14.45c-2.89,9.46-1,43.17-1,43.17h40.3s15.83-32,17.18-41.09,2.86-60.11,3.35-70.51S139,30.07,133,43.84c-3.77,8.61-8,21.41-8,21.41"/><path class="cls-2" d="M96.22,34.37c0,11.73-9.21,21.24-20.57,21.24S55.09,46.1,55.09,34.37,73.26,1,75.65,1,96.22,22.64,96.22,34.37Z"/></g></g></svg>