<svg xmlns="http://www.w3.org/2000/svg" viewBox="0 0 140.28 149.91"><defs><style>.cls-1{fill:none;stroke:#fff;stroke-linecap:round;stroke-linejoin:round;stroke-width:2px;}.cls-2{fill:#582cf3;}.cls-3{font-size:26.86px;fill:#fff;font-family:MicrosoftYaHei, Microsoft YaHei;}</style></defs><g id="图层_2" data-name="图层 2"><g id="图层_1-2" data-name="图层 1"><path class="cls-1" d="M84.39,100.55c10,0,18,3.06,11.25,11-6,7.12-32.23,6.54-42,6.26a3.55,3.55,0,0,0-3.85,3.29h0a3.5,3.5,0,0,0,3.55,3.28c7.81.35,26.55.81,35.57-2.08,10.87-3.49,16.35-6,19.59-14.63a3.62,3.62,0,0,1,2.68-2.2c4.52-1,15-3.1,17.48-3.42,6.36-.85,10.47,2.71,10.31,9.5-.15,6.11-2.53,7.6-7.57,11.12s-36.81,20.68-43.33,23.68-12.2,3-23.13,1.7C55.47,147,14.53,136.27,3.66,133.41A3.37,3.37,0,0,1,1,130.26V103.84a3.53,3.53,0,0,1,3.73-3.29Z"/><path class="cls-1" d="M38.42,100.55a44.38,44.38,0,1,1,51.13.35"/><line class="cls-1" x1="93.4" y1="12.82" x2="110.59" y2="12.82"/><line class="cls-1" x1="102" y1="4.23" x2="102" y2="21.42"/><line class="cls-1" x1="112.16" y1="5.5" x2="121.15" y2="5.5"/><line class="cls-1" x1="116.65" y1="1" x2="116.65" y2="9.99"/><line class="cls-1" x1="113.23" y1="34.45" x2="139.28" y2="34.45"/><line class="cls-1" x1="126.26" y1="21.42" x2="126.26" y2="47.47"/><circle class="cls-2" cx="64.23" cy="65.15" r="34.29"/><text class="cls-3" transform="translate(46.15 74.24)">$</text><text class="cls-3" transform="translate(66.55 74.24)">$</text></g></g></svg>