<svg xmlns="http://www.w3.org/2000/svg" viewBox="0 0 151 153.11"><defs><style>.cls-1{fill:#ffb600;}.cls-2{fill:none;stroke:#fff;stroke-linecap:round;stroke-linejoin:round;stroke-width:2px;}</style></defs><g id="图层_2" data-name="图层 2"><g id="图层_1-2" data-name="图层 1"><path class="cls-1" d="M0,100.31a52.8,52.8,0,1,0,52.8-52.8A52.8,52.8,0,0,0,0,100.31Z"/><path class="cls-2" d="M38.77,77.68h76.38a11.52,11.52,0,0,0,11.49-11.49V28.43a11.52,11.52,0,0,0-11.49-11.49H35.68A11.52,11.52,0,0,0,24.19,28.43v67Z"/><line class="cls-2" x1="40.54" y1="34.71" x2="110.29" y2="34.71"/><line class="cls-2" x1="72.07" y1="53.34" x2="110.29" y2="53.34"/><line class="cls-2" x1="40.54" y1="53.34" x2="58.54" y2="53.34"/><line class="cls-2" x1="118.95" y1="1" x2="118.95" y2="11.31"/><line class="cls-2" x1="142.39" y1="28.71" x2="132.08" y2="28.71"/><line class="cls-2" x1="135.76" y1="9.91" x2="128.47" y2="17.2"/><path class="cls-2" d="M132.08,49.93h6.43A11.52,11.52,0,0,1,150,61.42v67l-14.58-17.72H59a11.53,11.53,0,0,1-11.5-11.49V82.38"/><line class="cls-2" x1="102.11" y1="94.31" x2="63.9" y2="94.31"/><line class="cls-2" x1="133.65" y1="94.31" x2="115.65" y2="94.31"/><line class="cls-2" x1="55.24" y1="128.02" x2="55.24" y2="117.71"/><line class="cls-2" x1="31.8" y1="100.31" x2="42.11" y2="100.31"/><line class="cls-2" x1="38.42" y1="119.11" x2="45.71" y2="111.82"/></g></g></svg>