<?xml version="1.0" encoding="utf-8"?>
<!-- Generator: Adobe Illustrator 23.0.3, SVG Export Plug-In . SVG Version: 6.00 Build 0)  -->
<svg version="1.1" id="图层_1" xmlns="http://www.w3.org/2000/svg" xmlns:xlink="http://www.w3.org/1999/xlink" x="0px" y="0px"
	 viewBox="0 0 1200 360" style="enable-background:new 0 0 1200 360;" xml:space="preserve">
<style type="text/css">
	.st0{fill:none;stroke:#231815;stroke-width:2;stroke-linecap:round;stroke-linejoin:round;stroke-miterlimit:10;}
	.st1{fill:#231815;}
</style>
<g>
	<g>
		<path class="st0" d="M957,256.4c-2.4-4.4-7-7.3-12.3-7.3h-8.4c-7.7,0-14,6.3-14,14v6"/>
		<path class="st0" d="M945.8,282.6c6.2,6,9.3,12.8,7.9,21c-2.1,11.9-14.6,20.3-23.6,12.9c-9-7.4-12.7-9.5-17.7-10.7
			c-10.1-2.4-21.8-11.9-14.6-26.3c5.8-11.7,18.7-12.7,30.1-8.5"/>
		<path class="st1" d="M953.2,294c0,0-7.1,17.8-24.5,21.4l1.4,1.1c9,7.4,21.4-1,23.6-12.9c0.6-3.3,0.4-6.4-0.4-9.3L953.2,294z"/>
		<path class="st0" d="M953.2,294c0,0-7.1,17.8-24.5,21.4"/>
		<path class="st0" d="M898.6,269.1c0,0-4.6-5.9-12.4-4"/>
		<path class="st0" d="M904.9,265.9c0,0-2-10-9.9-12"/>
		<path class="st0" d="M907.1,303.9c16.9-11.2,17.7-33.9,17.7-33.9"/>
		<path class="st0" d="M943.2,282.7c-1.2,5.4-6.1,19.9-22.9,26.4"/>
		<circle class="st0" cx="909.2" cy="282.2" r="2.7"/>
		<path class="st0" d="M950.3,254.7h-8.4c-7.7,0-14,6.3-14,14v14l0,0h22.4c5.2,0,9.7-2.8,12.1-7c1.2-2.1,1.9-4.5,1.9-7l0,0
			C964.3,261,958,254.7,950.3,254.7z"/>
		<path class="st1" d="M943.2,282.7h-15.3V271l-3.1-1c0,0-0.8,22.6-17.7,33.9c0,0,2,1,4.2,1.6s3.7,0.9,6,2c2.2,1.1,3.1,1.7,3.1,1.7
			C937.1,302.6,942,288.1,943.2,282.7"/>
	</g>
	<g>
		<path class="st0" d="M329.5,225.3c2.4-4.4,7-7.3,12.3-7.3h8.4c7.7,0,14,6.3,14,14v6"/>
		<path class="st0" d="M340.6,251.4c-6.2,6-9.3,12.8-7.9,21c2.1,11.9,14.6,20.3,23.6,12.9c9-7.4,12.7-9.5,17.7-10.7
			c10.1-2.4,21.8-11.9,14.6-26.3c-5.8-11.7-18.7-12.7-30.1-8.5"/>
		<path class="st1" d="M333.2,262.8c0,0,7.1,17.8,24.5,21.4l-1.4,1.1c-9,7.4-21.4-1-23.6-12.9c-0.6-3.3-0.4-6.4,0.4-9.3L333.2,262.8
			z"/>
		<path class="st0" d="M333.2,262.8c0,0,7.1,17.8,24.5,21.4"/>
		<path class="st0" d="M387.8,238c0,0,4.6-5.9,12.4-4"/>
		<path class="st0" d="M381.6,234.7c0,0,2-10,9.9-12"/>
		<path class="st0" d="M379.4,272.7c-16.9-11.2-17.7-33.9-17.7-33.9"/>
		<path class="st0" d="M343.2,251.5c1.2,5.4,6.1,19.9,22.9,26.4"/>
		<circle class="st0" cx="377.3" cy="251" r="2.7"/>
		<path class="st0" d="M336.2,223.5h8.4c7.7,0,14,6.3,14,14v14l0,0h-22.4c-5.2,0-9.7-2.8-12.1-7c-1.2-2.1-1.9-4.5-1.9-7l0,0
			C322.2,229.8,328.5,223.5,336.2,223.5z"/>
		<path class="st1" d="M343.2,251.5h15.3v-11.7l3.1-1c0,0,0.8,22.6,17.7,33.9c0,0-2,1-4.2,1.6s-3.7,0.9-6,2
			c-2.2,1.1-3.1,1.7-3.1,1.7C349.3,271.4,344.5,256.9,343.2,251.5"/>
	</g>
	<g>
		<path class="st0" d="M639.9,175.4c-2.4-4.4-7-7.3-12.3-7.3h-8.4c-7.7,0-14,6.3-14,14v5.6"/>
		<path class="st0" d="M628.7,201.6c6.2,6,9.3,12.8,7.9,21c-2.1,11.9-14.6,20.3-23.6,12.9c-9-7.4-12.7-9.5-17.7-10.7
			c-10.1-2.4-21.8-11.9-14.6-26.3c5.8-11.7,18.7-12.7,30.1-8.5"/>
		<path class="st1" d="M636.1,213c0,0-7.1,17.8-24.5,21.4l1.4,1.1c9,7.4,21.4-1,23.6-12.9c0.6-3.3,0.4-6.4-0.4-9.3L636.1,213z"/>
		<path class="st0" d="M636.1,213c0,0-7.1,17.8-24.5,21.4"/>
		<path class="st0" d="M581.6,188.1c0,0-4.6-5.9-12.4-4"/>
		<path class="st0" d="M587.8,184.9c0,0-2-10-9.9-12"/>
		<path class="st0" d="M590,222.9c16.9-11.2,17.7-33.9,17.7-33.9"/>
		<path class="st0" d="M626.1,201.7c-1.2,5.4-6.1,19.9-22.9,26.4"/>
		<circle class="st0" cx="592.1" cy="201.2" r="2.7"/>
		<path class="st0" d="M633.2,173.7h-8.4c-7.7,0-14,6.3-14,14v14l0,0h22.4c5.2,0,9.7-2.8,12.1-7c1.2-2.1,1.9-4.5,1.9-7l0,0
			C647.2,180,640.9,173.7,633.2,173.7z"/>
		<path class="st1" d="M626.1,201.7h-15.3V190l-3.1-1c0,0-0.8,22.6-17.7,33.9c0,0,2,1,4.2,1.6c2.2,0.6,3.7,0.9,6,2
			c2.2,1.1,3.1,1.7,3.1,1.7C620,221.6,624.9,207.1,626.1,201.7"/>
	</g>
	<g>
		<path class="st0" d="M439.5,90.9c0,0,5.3-28.5,36.4-31.5c27.8-2.7,30.2,24.2,30.2,24.2"/>
		<path class="st0" d="M421.9,122.7c0,0-0.6-16.7,13.9-28.5c15.3-12.3,29.8-14.5,44-14.9c37-1.1,46.6,21.7,44.5,32.6"/>
		<path class="st0" d="M416.3,148.8c0,0-5.5-14.7,5.5-26.1c11.6-12,31.7-17.6,55.9-19.4s40,2.9,48.3,10c8.2,7.1,9.3,17.4,8.5,25.6"
			/>
		<path class="st0" d="M419.2,183.5c0,0-19.2-13.7-4.8-31.9c14.7-18.5,54.2-20.1,54.2-20.1"/>
		<ellipse class="st0" cx="486.6" cy="158.7" rx="25.2" ry="38.7"/>
		<path class="st0" d="M503.8,130.5c0,0,21.7,1.1,31,9.8c10,9.3,4.6,22.3-1.2,29.6"/>
		<path class="st0" d="M430.4,206.5c0,0-13.3-1.9-13.3-14.5c0-12.6,13.3-20.2,44.9-24.6"/>
		<path class="st0" d="M511.8,164.8c0,0,20.6-2,27.1,11.7c4.2,8.8-4.1,21-12.5,21.2"/>
		<path class="st0" d="M476,193.9c0,0-40.7,1.8-46.4,15.3c-4,9.4,4.9,19.1,30.2,18.9c25.3-0.2,45.3-1.8,60.6-10
			c9-4.9,14.4-16,3.9-21.2c-10.2-5.1-25.1-4.5-25.1-4.5"/>
		<path class="st0" d="M444.3,226.7c0,0,2.1,12.5,22.4,14.5c16.2,1.6,35.2-1.6,41.6-5.9c8.1-5.5,8.4-15.4,8.4-15.4"/>
		<path class="st0" d="M464.6,240.9c0,0,4.9,11.2,19.7,10.6s18.1-13.6,18.1-13.6"/>
		<path class="st0" d="M474.7,59.3c0,0-6.8-9.9-2.6-15s7.9-1.5,7.7,4.3C479.6,53.3,476.8,56,474.7,59.3z"/>
	</g>
	<line class="st0" x1="48" y1="46.3" x2="1152" y2="46.3"/>
	<g>
		<g>
			<path class="st0" d="M866,119.9l-27.1,59.6c-0.7,1.6-2.7,2.3-4.3,1.6l-49.4-22.4c-1.6-0.7-2.3-2.7-1.6-4.3l27.1-59.6
				c0.7-1.6,2.7-2.3,4.3-1.6l49.4,22.4C866,116.4,866.7,118.3,866,119.9z"/>
			<g>
				<line class="st0" x1="838.5" y1="121.6" x2="852.8" y2="128.1"/>
				<line class="st0" x1="833.8" y1="132.1" x2="848" y2="138.6"/>
			</g>
			<line class="st0" x1="801.5" y1="138.3" x2="840.2" y2="155.9"/>
			<line class="st0" x1="796.8" y1="148.8" x2="835.4" y2="166.4"/>
			<path class="st0" d="M822.4,130.8l-12-5.5c-1.3-0.6-2-2.2-1.3-3.6l5.5-12c0.6-1.3,2.2-2,3.6-1.3l12,5.5c1.3,0.6,2,2.2,1.3,3.6
				l-5.5,12C825.3,130.8,823.7,131.4,822.4,130.8z"/>
		</g>
		<line class="st0" x1="813.5" y1="55.5" x2="813.5" y2="93.1"/>
		<path class="st0" d="M812.9,55.5c0,0-6.7-10.7-0.8-12.5c6.8-2,4.9,7,2.1,12.5"/>
	</g>
	<g>
		<g>
			<path class="st0" d="M682.5,118.4l-52.2,19c-1.7,0.6-3.5-0.3-4.1-1.9l-14.3-39.2c-0.6-1.7,0.3-3.5,1.9-4.1l52.2-19
				c1.7-0.6,3.5,0.3,4.1,1.9l14.3,39.2C685,116,684.1,117.8,682.5,118.4z"/>
			<polyline class="st0" points="623.7,128.8 634.8,112.7 645.7,118.5 664.6,86.9 677.1,94.8 			"/>
			<circle class="st0" cx="630.2" cy="99.3" r="7"/>
			<line class="st0" x1="681" y1="105.7" x2="667.9" y2="110.4"/>
			<line class="st0" x1="682.9" y1="110.7" x2="657.5" y2="120"/>
		</g>
		<path class="st0" d="M667.3,58.1c0,0-4.7-9.8-1.3-13.8c4.4-5.1,8.1,3.1,2.4,13.3"/>
		<line class="st0" x1="667.8" y1="57.6" x2="667.8" y2="73.1"/>
	</g>
	<g>
		<g>
			<path class="st0" d="M1066.2,88.3l-20.2,35.5c-0.9,1.5-2.9,2.1-4.4,1.2l-29-16.5c-1.5-0.9-2.1-2.9-1.2-4.4l20.2-35.5
				c0.9-1.5,2.9-2.1,4.4-1.2l29,16.5C1066.5,84.8,1067.1,86.8,1066.2,88.3z"/>
			<line class="st0" x1="1022.7" y1="76.4" x2="1029.5" y2="80.3"/>
			<line class="st0" x1="1014.6" y1="90.7" x2="1021.4" y2="94.5"/>
			<line class="st0" x1="1041.9" y1="71.1" x2="1018.9" y2="111.8"/>
		</g>
		<path class="st0" d="M1033.9,56.8c0,0-4.2-8.7-1.2-12.2c3.9-4.5,7.2,2.7,2.1,11.7"/>
		<line class="st0" x1="1034.4" y1="56.4" x2="1034.4" y2="66.5"/>
	</g>
	<g>
		<line class="st0" x1="294.6" y1="53.5" x2="294.6" y2="86.7"/>
		<path class="st0" d="M294,53.5c0,0-6.7-10.7-0.8-12.5c6.8-2,4.9,7,2.1,12.5"/>
		<g>
			<path class="st0" d="M322.3,131l-25.7,25.7l1.9,11.4l-9-4.3l-7.3,7.3c-1.4,1.4-3.6,1.4-5,0L252,145.9c-1.4-1.4-1.4-3.6,0-5
				l40.2-40.1c1.4-1.4,3.6-1.4,5,0l25.1,25.2C323.7,127.3,323.7,129.6,322.3,131z"/>
			<path class="st0" d="M254,138.9l-3.7-3.7c-1.4-1.4-1.4-3.6,0-5l41.9-41.9c1.4-1.4,3.6-1.4,5,0l25.1,25.2c1.4,1.4,1.4,3.6,0,5
				l-3.7,3.7"/>
			<circle class="st0" cx="273.6" cy="149.4" r="4.5"/>
			<circle class="st0" cx="287.1" cy="135.9" r="4.5"/>
			<circle class="st0" cx="300.6" cy="122.4" r="4.5"/>
		</g>
	</g>
	<g>
		<path class="st0" d="M194.6,57c0,0-4.7-9.8-1.3-13.8c4.4-5.1,8.1,3.1,2.4,13.3"/>
		<line class="st0" x1="195.1" y1="56.5" x2="195.1" y2="72"/>
		<g>
			<polygon class="st0" points="214.9,84.4 195.1,72 174.4,82.9 173.5,106.2 193.3,118.7 214,107.8 			"/>
			<circle class="st0" cx="194.2" cy="95.3" r="8.5"/>
		</g>
	</g>
</g>
</svg>
