<svg id="图层_1" data-name="图层 1" xmlns="http://www.w3.org/2000/svg" xmlns:xlink="http://www.w3.org/1999/xlink" viewBox="0 0 108 112"><defs><style>.cls-1{fill:url(#未命名的渐变_15);}.cls-2{fill:#fdc31a;}</style><linearGradient id="未命名的渐变_15" x1="0.46" y1="56" x2="107.54" y2="56" gradientUnits="userSpaceOnUse"><stop offset="0" stop-color="#582cf3"/><stop offset="1" stop-color="#d13af9"/></linearGradient></defs><path class="cls-1" d="M25.29,74.62V12.55A12.42,12.42,0,0,0,12.88.13h0A12.42,12.42,0,0,0,.46,12.55v86.9a12.42,12.42,0,0,0,12.42,12.42H95.12a12.42,12.42,0,0,0,12.42-12.42h0A12.41,12.41,0,0,0,95.12,87H37.71A12.42,12.42,0,0,1,25.29,74.62Z"/><rect class="cls-2" x="43.91" y="43.59" width="63.62" height="24.83" rx="12.41"/><rect class="cls-2" x="43.91" y="0.13" width="63.62" height="24.83" rx="12.41"/></svg>