<svg id="图层_1" data-name="图层 1" xmlns="http://www.w3.org/2000/svg" xmlns:xlink="http://www.w3.org/1999/xlink" viewBox="0 0 599 112"><defs><style>.cls-1{fill:url(#未命名的渐变_15);}.cls-2{fill:#fdc31a;}</style><linearGradient id="未命名的渐变_15" x1="0.73" y1="56" x2="107.8" y2="56" gradientUnits="userSpaceOnUse"><stop offset="0" stop-color="#582cf3"/><stop offset="1" stop-color="#d13af9"/></linearGradient></defs><path class="cls-1" d="M25.56,74.62V12.55A12.42,12.42,0,0,0,13.14.13h0A12.42,12.42,0,0,0,.73,12.55v86.9a12.42,12.42,0,0,0,12.41,12.42H95.39A12.42,12.42,0,0,0,107.8,99.45h0A12.41,12.41,0,0,0,95.39,87H38A12.41,12.41,0,0,1,25.56,74.62Z"/><rect class="cls-2" x="44.18" y="43.59" width="63.62" height="24.83" rx="12.41"/><rect class="cls-2" x="44.18" y="0.13" width="63.62" height="24.83" rx="12.41"/><path d="M138.62,79.55a.84.84,0,0,1-.26-.62V29.8a.89.89,0,0,1,.87-.88h8.51a.85.85,0,0,1,.62.26.83.83,0,0,1,.25.62V70.65A.32.32,0,0,0,149,71h23.77a.89.89,0,0,1,.87.87v7.05a.89.89,0,0,1-.87.88H139.23A.83.83,0,0,1,138.62,79.55Z"/><path d="M180.7,36.59a5.57,5.57,0,0,1-1.63-4.11,5.74,5.74,0,1,1,11.48,0,5.81,5.81,0,0,1-9.85,4.11Zm-.87,43a.83.83,0,0,1-.25-.62V43.24a.82.82,0,0,1,.25-.61.85.85,0,0,1,.62-.26H189a.89.89,0,0,1,.88.87V78.93a.89.89,0,0,1-.88.88h-8.5A.85.85,0,0,1,179.83,79.55Z"/><path d="M226.68,45.42q3.56,3.57,3.56,9.67V78.93a.83.83,0,0,1-.25.62.85.85,0,0,1-.62.26h-8.5a.89.89,0,0,1-.88-.88V57.2a6.77,6.77,0,0,0-1.63-4.72,6,6,0,0,0-8.65,0,6.78,6.78,0,0,0-1.64,4.72V78.93a.83.83,0,0,1-.25.62.85.85,0,0,1-.62.26h-8.51a.89.89,0,0,1-.87-.88V43.32a.89.89,0,0,1,.87-.88h8.51a.85.85,0,0,1,.62.26.83.83,0,0,1,.25.62v2.54a.29.29,0,0,0,.15.29.14.14,0,0,0,.22-.07q3-4.21,8.86-4.22A12.69,12.69,0,0,1,226.68,45.42Z"/><path d="M237.77,79.55a.84.84,0,0,1-.26-.62V29.8a.89.89,0,0,1,.87-.88h8.51a.85.85,0,0,1,.62.26.83.83,0,0,1,.25.62V54.29c0,.15.05.23.15.26a.31.31,0,0,0,.29-.11L258.08,43a1.54,1.54,0,0,1,1.09-.51h9.67c.49,0,.73.17.73.51a1.17,1.17,0,0,1-.22.58l-9.23,11.71a.64.64,0,0,0-.07.51l10.83,23a1.19,1.19,0,0,1,.14.44c0,.38-.26.58-.8.58h-8.94a1,1,0,0,1-1-.66l-7.19-17a.39.39,0,0,0-.26-.18.21.21,0,0,0-.25.11l-4.65,5.82a1.09,1.09,0,0,0-.15.43V78.93a.83.83,0,0,1-.25.62.85.85,0,0,1-.62.26h-8.51A.83.83,0,0,1,237.77,79.55Z"/><path d="M306.28,63.45a.85.85,0,0,1-.95.87H282.87c-.29,0-.39.12-.29.37a12.93,12.93,0,0,0,.8,2.9q1.89,4.08,7.71,4.08a8.79,8.79,0,0,0,7.34-3.78.79.79,0,0,1,.65-.44.8.8,0,0,1,.51.29l5.23,5.16a1,1,0,0,1,.37.66,1.6,1.6,0,0,1-.29.58,15.91,15.91,0,0,1-6.18,4.61,20.65,20.65,0,0,1-8.29,1.64,18.9,18.9,0,0,1-10.58-2.84,15.75,15.75,0,0,1-6.21-7.92,24.87,24.87,0,0,1-1.53-9.52,21,21,0,0,1,1.09-7,16.08,16.08,0,0,1,5.85-8.22A16.42,16.42,0,0,1,289,41.79q7.26,0,11.66,4.22A18.39,18.39,0,0,1,306,57.27,31.87,31.87,0,0,1,306.28,63.45ZM283,55a15.47,15.47,0,0,0-.51,2.32.32.32,0,0,0,.36.37h12.58c.29,0,.38-.12.29-.37-.25-1.4-.37-2.08-.37-2a6.23,6.23,0,0,0-2.29-3.38,6.62,6.62,0,0,0-4-1.2A5.82,5.82,0,0,0,283,55Z"/><path d="M357.27,29.18a.84.84,0,0,1,.62-.26h8.5a.85.85,0,0,1,.62.26.83.83,0,0,1,.25.62V78.93a.83.83,0,0,1-.25.62.85.85,0,0,1-.62.26h-8.21a1,1,0,0,1-1-.58L338.33,48.11c-.09-.14-.19-.2-.29-.18s-.14.14-.14.33L338,78.93a.83.83,0,0,1-.25.62.85.85,0,0,1-.62.26h-8.5a.89.89,0,0,1-.88-.88V29.8a.89.89,0,0,1,.88-.88h8.21a1.07,1.07,0,0,1,1,.58l18.75,31c.1.15.19.21.29.18s.15-.13.15-.32L357,29.8A.83.83,0,0,1,357.27,29.18Z"/><path d="M408.84,63.45a.84.84,0,0,1-.94.87H385.44c-.29,0-.39.12-.29.37a12.9,12.9,0,0,0,.79,2.9q1.89,4.08,7.71,4.08A8.77,8.77,0,0,0,401,67.89a.65.65,0,0,1,1.16-.15l5.24,5.16a1,1,0,0,1,.36.66,1.6,1.6,0,0,1-.29.58,15.91,15.91,0,0,1-6.18,4.61A20.64,20.64,0,0,1,393,80.39a18.88,18.88,0,0,1-10.58-2.84,15.77,15.77,0,0,1-6.22-7.92,25.08,25.08,0,0,1-1.52-9.52,20.8,20.8,0,0,1,1.09-7,16,16,0,0,1,5.85-8.22,16.39,16.39,0,0,1,9.92-3.05q7.27,0,11.67,4.22a18.43,18.43,0,0,1,5.34,11.26A31.1,31.1,0,0,1,408.84,63.45ZM385.58,55a18.44,18.44,0,0,0-.51,2.32.32.32,0,0,0,.37.37H398c.29,0,.39-.12.29-.37-.24-1.4-.36-2.08-.36-2a6.28,6.28,0,0,0-2.29-3.38,6.65,6.65,0,0,0-4-1.2A5.83,5.83,0,0,0,385.58,55Z"/><path d="M435.48,50.4a.83.83,0,0,1-.61.26h-7a.32.32,0,0,0-.37.36V66.43a5.38,5.38,0,0,0,1,3.56,3.89,3.89,0,0,0,3.16,1.17h2.4a.82.82,0,0,1,.61.25.85.85,0,0,1,.26.62v6.9a.9.9,0,0,1-.87.95c-2,.1-3.49.14-4.37.14q-6,0-9-2c-2-1.34-3-3.84-3.05-7.53V51a.32.32,0,0,0-.37-.36h-4.14a.85.85,0,0,1-.62-.26.82.82,0,0,1-.25-.61V43.32a.83.83,0,0,1,.25-.62.85.85,0,0,1,.62-.26h4.14a.32.32,0,0,0,.37-.36V33.43a.85.85,0,0,1,.87-.87h8.14a.85.85,0,0,1,.87.87v8.65a.32.32,0,0,0,.37.36h7a.89.89,0,0,1,.87.88v6.47A.83.83,0,0,1,435.48,50.4Z"/><path d="M450.2,79.08,439.74,43.39l-.08-.29c0-.49.27-.73.8-.73h8.8a1,1,0,0,1,1,.73l5.23,21.95c.05.15.12.22.22.22s.17-.07.22-.22L461.4,43.1a.94.94,0,0,1,1-.73h7.64a1,1,0,0,1,1,.73l5.74,22c.05.15.12.22.22.22s.16-.07.21-.22l5.67-22a1,1,0,0,1,1-.73l8.72.15a.71.71,0,0,1,.62.25.9.9,0,0,1,.11.69L482.77,79.08a.92.92,0,0,1-.95.73H473a1,1,0,0,1-1-.73l-5.6-19.48c-.05-.15-.12-.22-.22-.22s-.17.07-.21.22l-5,19.48a1,1,0,0,1-1,.73h-8.8A1,1,0,0,1,450.2,79.08Z"/><path d="M502.47,77.19a15.93,15.93,0,0,1-6-8.72,25.84,25.84,0,0,1-1-7.42,26.89,26.89,0,0,1,1-7.7,15.54,15.54,0,0,1,6-8.43A17.77,17.77,0,0,1,513,41.86a17,17,0,0,1,10.17,3,16.15,16.15,0,0,1,6,8.39,25.11,25.11,0,0,1,1.16,7.64,25.58,25.58,0,0,1-1,7.34,16.25,16.25,0,0,1-5.92,8.9,16.91,16.91,0,0,1-10.43,3.24A17.2,17.2,0,0,1,502.47,77.19Zm14.54-7a8.06,8.06,0,0,0,2.39-4,20.85,20.85,0,0,0,.59-5.09,19.59,19.59,0,0,0-.59-5.16A8,8,0,0,0,516.93,52a6.75,6.75,0,0,0-8.18,0,7.76,7.76,0,0,0-2.36,3.85,17.21,17.21,0,0,0-.58,5.16,19.76,19.76,0,0,0,.51,5.09,8,8,0,0,0,2.43,4,6.25,6.25,0,0,0,4.19,1.45A6,6,0,0,0,517,70.14Z"/><path d="M559.67,43a.9.9,0,0,1,.44,1.09l-1.53,8.29c-.05.58-.38.75-1,.51a8.17,8.17,0,0,0-2.55-.36,11.36,11.36,0,0,0-1.6.14A7.16,7.16,0,0,0,549,54.55a5.94,5.94,0,0,0-1.82,4.54V78.93a.83.83,0,0,1-.25.62.85.85,0,0,1-.62.26h-8.51a.89.89,0,0,1-.87-.88V43.32a.89.89,0,0,1,.87-.88h8.51a.85.85,0,0,1,.62.26.83.83,0,0,1,.25.62v2.76a.3.3,0,0,0,.15.29.14.14,0,0,0,.21-.07,9.25,9.25,0,0,1,8-4.37A7.33,7.33,0,0,1,559.67,43Z"/><path d="M565,79.55a.84.84,0,0,1-.26-.62V29.8a.89.89,0,0,1,.88-.88h8.5a.85.85,0,0,1,.62.26.83.83,0,0,1,.25.62V54.29c0,.15,0,.23.15.26a.31.31,0,0,0,.29-.11L585.33,43a1.54,1.54,0,0,1,1.09-.51h9.67c.49,0,.73.17.73.51a1.17,1.17,0,0,1-.22.58l-9.23,11.71a.64.64,0,0,0-.07.51l10.83,23a1.19,1.19,0,0,1,.14.44c0,.38-.26.58-.8.58h-8.94a1,1,0,0,1-1-.66l-7.2-17a.37.37,0,0,0-.26-.18.21.21,0,0,0-.25.11l-4.65,5.82a1.09,1.09,0,0,0-.15.43V78.93a.83.83,0,0,1-.25.62.85.85,0,0,1-.62.26h-8.5A.84.84,0,0,1,565,79.55Z"/></svg>