<svg width="69" height="69" viewBox="0 0 69 69" fill="none" xmlns="http://www.w3.org/2000/svg">
<rect width="69" height="69" rx="4" fill="#F6F6F6"/>
<path fill-rule="evenodd" clip-rule="evenodd" d="M23 38C22.4477 38 22 37.5523 22 37L22 33C22 32.4477 22.4477 32 23 32L27 32C27.5523 32 28 32.4477 28 33L28 37C28 37.5523 27.5523 38 27 38L23 38ZM32 38C31.4477 38 31 37.5523 31 37L31 33C31 32.4477 31.4477 32 32 32L36 32C36.5523 32 37 32.4477 37 33L37 37C37 37.5523 36.5523 38 36 38L32 38ZM40 37C40 37.5523 40.4477 38 41 38L45 38C45.5523 38 46 37.5523 46 37L46 33C46 32.4477 45.5523 32 45 32L41 32C40.4477 32 40 32.4477 40 33L40 37Z" fill="black"/>
</svg>
