<svg id="图层_1" data-name="图层 1" xmlns="http://www.w3.org/2000/svg" viewBox="0 0 60 60"><defs><style>.cls-1{fill:#ffb600;}.cls-2{fill:none;stroke:#ffb600;stroke-linecap:round;stroke-linejoin:round;stroke-width:2px;}</style></defs><title>twitter图标</title><path class="cls-1" d="M30,2A28,28,0,1,1,2,30,28,28,0,0,1,30,2m0-2A30,30,0,1,0,60,30,30,30,0,0,0,30,0Z"/><path class="cls-2" d="M42.63,24.14c0-.29,0-.59,0-.88a13.35,13.35,0,0,0,3.25-3.49,12.71,12.71,0,0,1-3.74,1A6.68,6.68,0,0,0,45,17.05a12.46,12.46,0,0,1-4.14,1.59A6.46,6.46,0,0,0,36.1,16.4a6.58,6.58,0,0,0-6.51,6.79,7.4,7.4,0,0,0,.17,1.57,18.37,18.37,0,0,1-13.42-7.41,7.29,7.29,0,0,0,2,9.29,6.15,6.15,0,0,1-2.95-.9v.09a6.91,6.91,0,0,0,5.22,6.85,5.7,5.7,0,0,1-1.71.23,5.58,5.58,0,0,1-1.23-.13,6.64,6.64,0,0,0,6.08,4.85,12.56,12.56,0,0,1-8.08,2.94,13.3,13.3,0,0,1-1.55-.1,17.53,17.53,0,0,0,10,3.13C36.09,43.6,42.63,33.18,42.63,24.14Z"/></svg>